<svg width="354" height="12" viewBox="0 0 354 12" fill="none" xmlns="http://www.w3.org/2000/svg">
<path d="M0.816 6.996C0.816 6.492 0.948 6.056 1.212 5.688C1.476 5.312 1.888 4.972 2.448 4.668C2.248 4.548 2.06 4.424 1.884 4.296C1.716 4.16 1.564 4.008 1.428 3.84C1.3 3.672 1.196 3.484 1.116 3.276C1.044 3.068 1.008 2.828 1.008 2.556C1.008 2.244 1.06 1.96 1.164 1.704C1.276 1.448 1.432 1.228 1.632 1.044C1.84 0.859999 2.084 0.715999 2.364 0.611999C2.652 0.508 2.976 0.456 3.336 0.456C3.672 0.456 3.976 0.504 4.248 0.599999C4.52 0.696 4.748 0.828 4.932 0.995999C5.124 1.164 5.272 1.364 5.376 1.596C5.48 1.828 5.532 2.084 5.532 2.364C5.532 2.82 5.428 3.224 5.22 3.576C5.012 3.92 4.668 4.26 4.188 4.596C4.396 4.716 4.592 4.848 4.776 4.992C4.968 5.136 5.132 5.296 5.268 5.472C5.412 5.648 5.524 5.848 5.604 6.072C5.684 6.288 5.724 6.536 5.724 6.816C5.724 7.16 5.668 7.476 5.556 7.764C5.444 8.044 5.28 8.288 5.064 8.496C4.848 8.696 4.584 8.856 4.272 8.976C3.96 9.088 3.604 9.144 3.204 9.144C2.82 9.144 2.48 9.088 2.184 8.976C1.888 8.864 1.636 8.712 1.428 8.52C1.228 8.328 1.076 8.104 0.972 7.848C0.868 7.584 0.816 7.3 0.816 6.996ZM4.788 6.876C4.788 6.636 4.74 6.428 4.644 6.252C4.548 6.068 4.42 5.904 4.26 5.76C4.108 5.608 3.932 5.472 3.732 5.352C3.532 5.232 3.324 5.116 3.108 5.004C2.62 5.276 2.272 5.58 2.064 5.916C1.856 6.252 1.752 6.572 1.752 6.876C1.752 7.068 1.784 7.252 1.848 7.428C1.912 7.604 2.008 7.756 2.136 7.884C2.264 8.012 2.42 8.116 2.604 8.196C2.796 8.268 3.016 8.304 3.264 8.304C3.464 8.304 3.656 8.276 3.84 8.22C4.024 8.156 4.184 8.068 4.32 7.956C4.464 7.836 4.576 7.688 4.656 7.512C4.744 7.328 4.788 7.116 4.788 6.876ZM1.944 2.532C1.944 2.756 1.988 2.956 2.076 3.132C2.164 3.3 2.28 3.452 2.424 3.588C2.576 3.724 2.748 3.852 2.94 3.972C3.132 4.084 3.332 4.192 3.54 4.296C3.9 4.016 4.164 3.74 4.332 3.468C4.508 3.196 4.596 2.896 4.596 2.568C4.596 2.16 4.468 1.848 4.212 1.632C3.964 1.408 3.664 1.296 3.312 1.296C3.096 1.296 2.904 1.332 2.736 1.404C2.568 1.476 2.424 1.568 2.304 1.68C2.184 1.792 2.092 1.924 2.028 2.076C1.972 2.22 1.944 2.372 1.944 2.532ZM12.4623 11.64C12.0943 11.256 11.7823 10.832 11.5263 10.368C11.2703 9.912 11.0623 9.444 10.9023 8.964C10.7503 8.476 10.6383 7.988 10.5663 7.5C10.4943 7.004 10.4583 6.532 10.4583 6.084C10.4583 5.644 10.4943 5.18 10.5663 4.692C10.6383 4.204 10.7543 3.716 10.9143 3.228C11.0743 2.732 11.2823 2.248 11.5383 1.776C11.8023 1.304 12.1223 0.864 12.4983 0.456L13.0743 0.875999C12.7543 1.284 12.4863 1.708 12.2703 2.148C12.0623 2.58 11.8943 3.02 11.7663 3.468C11.6383 3.916 11.5463 4.364 11.4903 4.812C11.4423 5.252 11.4183 5.676 11.4183 6.084C11.4183 6.468 11.4463 6.888 11.5023 7.344C11.5663 7.792 11.6623 8.244 11.7903 8.7C11.9263 9.148 12.0983 9.588 12.3063 10.02C12.5223 10.452 12.7783 10.844 13.0743 11.196L12.4623 11.64ZM13.9176 6.996C13.9176 6.492 14.0496 6.056 14.3136 5.688C14.5776 5.312 14.9896 4.972 15.5496 4.668C15.3496 4.548 15.1616 4.424 14.9856 4.296C14.8176 4.16 14.6656 4.008 14.5296 3.84C14.4016 3.672 14.2976 3.484 14.2176 3.276C14.1456 3.068 14.1096 2.828 14.1096 2.556C14.1096 2.244 14.1616 1.96 14.2656 1.704C14.3776 1.448 14.5336 1.228 14.7336 1.044C14.9416 0.859999 15.1856 0.715999 15.4656 0.611999C15.7536 0.508 16.0776 0.456 16.4376 0.456C16.7736 0.456 17.0776 0.504 17.3496 0.599999C17.6216 0.696 17.8496 0.828 18.0336 0.995999C18.2256 1.164 18.3736 1.364 18.4776 1.596C18.5816 1.828 18.6336 2.084 18.6336 2.364C18.6336 2.82 18.5296 3.224 18.3216 3.576C18.1136 3.92 17.7696 4.26 17.2896 4.596C17.4976 4.716 17.6936 4.848 17.8776 4.992C18.0696 5.136 18.2336 5.296 18.3696 5.472C18.5136 5.648 18.6256 5.848 18.7056 6.072C18.7856 6.288 18.8256 6.536 18.8256 6.816C18.8256 7.16 18.7696 7.476 18.6576 7.764C18.5456 8.044 18.3816 8.288 18.1656 8.496C17.9496 8.696 17.6856 8.856 17.3736 8.976C17.0616 9.088 16.7056 9.144 16.3056 9.144C15.9216 9.144 15.5816 9.088 15.2856 8.976C14.9896 8.864 14.7376 8.712 14.5296 8.52C14.3296 8.328 14.1776 8.104 14.0736 7.848C13.9696 7.584 13.9176 7.3 13.9176 6.996ZM17.8896 6.876C17.8896 6.636 17.8416 6.428 17.7456 6.252C17.6496 6.068 17.5216 5.904 17.3616 5.76C17.2096 5.608 17.0336 5.472 16.8336 5.352C16.6336 5.232 16.4256 5.116 16.2096 5.004C15.7216 5.276 15.3736 5.58 15.1656 5.916C14.9576 6.252 14.8536 6.572 14.8536 6.876C14.8536 7.068 14.8856 7.252 14.9496 7.428C15.0136 7.604 15.1096 7.756 15.2376 7.884C15.3656 8.012 15.5216 8.116 15.7056 8.196C15.8976 8.268 16.1176 8.304 16.3656 8.304C16.5656 8.304 16.7576 8.276 16.9416 8.22C17.1256 8.156 17.2856 8.068 17.4216 7.956C17.5656 7.836 17.6776 7.688 17.7576 7.512C17.8456 7.328 17.8896 7.116 17.8896 6.876ZM15.0456 2.532C15.0456 2.756 15.0896 2.956 15.1776 3.132C15.2656 3.3 15.3816 3.452 15.5256 3.588C15.6776 3.724 15.8496 3.852 16.0416 3.972C16.2336 4.084 16.4336 4.192 16.6416 4.296C17.0016 4.016 17.2656 3.74 17.4336 3.468C17.6096 3.196 17.6976 2.896 17.6976 2.568C17.6976 2.16 17.5696 1.848 17.3136 1.632C17.0656 1.408 16.7656 1.296 16.4136 1.296C16.1976 1.296 16.0056 1.332 15.8376 1.404C15.6696 1.476 15.5256 1.568 15.4056 1.68C15.2856 1.792 15.1936 1.924 15.1296 2.076C15.0736 2.22 15.0456 2.372 15.0456 2.532ZM20.9366 8.112H22.6166V2.304L22.7366 1.596L22.2566 2.16L20.9366 3.108L20.4806 2.496L23.1206 0.456H23.5526V8.112H25.1966V9H20.9366V8.112ZM31.5317 2.508C31.5317 2.932 31.4517 3.368 31.2917 3.816C31.1397 4.256 30.9357 4.7 30.6797 5.148C30.4317 5.596 30.1517 6.036 29.8397 6.468C29.5277 6.892 29.2157 7.296 28.9037 7.68L28.3157 8.196V8.244L29.0837 8.112H31.6997V9H26.9237V8.652C27.0997 8.468 27.3117 8.24 27.5597 7.968C27.8077 7.696 28.0637 7.396 28.3277 7.068C28.5997 6.732 28.8637 6.38 29.1197 6.012C29.3837 5.636 29.6197 5.256 29.8277 4.872C30.0437 4.488 30.2157 4.108 30.3437 3.732C30.4717 3.356 30.5357 3 30.5357 2.664C30.5357 2.272 30.4237 1.948 30.1997 1.692C29.9757 1.428 29.6357 1.296 29.1797 1.296C28.8757 1.296 28.5797 1.36 28.2917 1.488C28.0037 1.608 27.7557 1.748 27.5477 1.908L27.1517 1.224C27.4317 0.984 27.7637 0.796 28.1477 0.659999C28.5317 0.524 28.9437 0.456 29.3837 0.456C29.7277 0.456 30.0317 0.508 30.2957 0.611999C30.5597 0.707999 30.7837 0.848 30.9677 1.032C31.1517 1.216 31.2917 1.436 31.3877 1.692C31.4837 1.94 31.5317 2.212 31.5317 2.508ZM33.3548 0.456C33.7228 0.84 34.0348 1.264 34.2908 1.728C34.5468 2.184 34.7508 2.656 34.9028 3.144C35.0628 3.624 35.1788 4.112 35.2508 4.608C35.3228 5.096 35.3588 5.564 35.3588 6.012C35.3588 6.452 35.3228 6.916 35.2508 7.404C35.1788 7.892 35.0628 8.384 34.9028 8.88C34.7428 9.368 34.5308 9.848 34.2668 10.32C34.0108 10.792 33.6948 11.232 33.3188 11.64L32.7428 11.22C33.0628 10.812 33.3308 10.388 33.5468 9.948C33.7628 9.508 33.9308 9.064 34.0508 8.616C34.1788 8.168 34.2668 7.724 34.3148 7.284C34.3708 6.844 34.3988 6.42 34.3988 6.012C34.3988 5.628 34.3668 5.212 34.3027 4.764C34.2388 4.316 34.1388 3.864 34.0028 3.408C33.8748 2.952 33.7068 2.508 33.4988 2.076C33.2908 1.644 33.0388 1.252 32.7428 0.9L33.3548 0.456ZM40.5773 8.112H42.2573V2.304L42.3773 1.596L41.8973 2.16L40.5773 3.108L40.1213 2.496L42.7613 0.456H43.1933V8.112H44.8373V9H40.5773V8.112ZM51.1723 2.508C51.1723 2.932 51.0923 3.368 50.9323 3.816C50.7803 4.256 50.5763 4.7 50.3203 5.148C50.0723 5.596 49.7923 6.036 49.4803 6.468C49.1683 6.892 48.8563 7.296 48.5443 7.68L47.9563 8.196V8.244L48.7243 8.112H51.3403V9H46.5643V8.652C46.7403 8.468 46.9523 8.24 47.2003 7.968C47.4483 7.696 47.7043 7.396 47.9683 7.068C48.2403 6.732 48.5043 6.38 48.7603 6.012C49.0243 5.636 49.2603 5.256 49.4683 4.872C49.6843 4.488 49.8563 4.108 49.9843 3.732C50.1123 3.356 50.1763 3 50.1763 2.664C50.1763 2.272 50.0643 1.948 49.8403 1.692C49.6163 1.428 49.2763 1.296 48.8203 1.296C48.5163 1.296 48.2203 1.36 47.9323 1.488C47.6443 1.608 47.3963 1.748 47.1883 1.908L46.7923 1.224C47.0723 0.984 47.4043 0.796 47.7883 0.659999C48.1723 0.524 48.5843 0.456 49.0243 0.456C49.3683 0.456 49.6723 0.508 49.9363 0.611999C50.2003 0.707999 50.4243 0.848 50.6083 1.032C50.7923 1.216 50.9323 1.436 51.0283 1.692C51.1243 1.94 51.1723 2.212 51.1723 2.508ZM55.1674 8.304C55.4394 8.304 55.6914 8.264 55.9234 8.184C56.1554 8.104 56.3554 7.988 56.5234 7.836C56.6914 7.676 56.8234 7.488 56.9194 7.272C57.0154 7.056 57.0634 6.82 57.0634 6.564C57.0634 6.004 56.8954 5.588 56.5594 5.316C56.2314 5.044 55.7754 4.908 55.1914 4.908H54.3034V4.56L56.0314 1.896L56.5834 1.368L55.8034 1.488H53.4274V0.599999H57.7114V0.948L55.8034 3.816L55.3834 4.164V4.188L55.7914 4.104C56.1114 4.112 56.4074 4.172 56.6794 4.284C56.9514 4.388 57.1874 4.544 57.3874 4.752C57.5874 4.952 57.7434 5.196 57.8554 5.484C57.9674 5.764 58.0234 6.084 58.0234 6.444C58.0234 6.876 57.9474 7.26 57.7954 7.596C57.6434 7.932 57.4354 8.216 57.1714 8.448C56.9154 8.672 56.6114 8.844 56.2594 8.964C55.9074 9.084 55.5354 9.144 55.1434 9.144C54.7834 9.144 54.4594 9.116 54.1714 9.06C53.8834 9.004 53.6314 8.932 53.4154 8.844L53.6674 7.992C53.8514 8.08 54.0674 8.156 54.3154 8.22C54.5714 8.276 54.8554 8.304 55.1674 8.304ZM59.6064 5.1H62.5104V5.988H59.6064V5.1ZM69.5107 6.42H68.0947V9H67.1587V6.42H63.4627V6.024L67.4467 0.468H68.0947V5.58H69.5107V6.42ZM67.1587 2.964L67.2787 1.98H67.2427L66.8227 2.796L65.1307 5.088L64.5547 5.676L65.3947 5.58H67.1587V2.964ZM72.3177 8.304C72.8697 8.304 73.3257 8.144 73.6857 7.824C74.0457 7.504 74.2257 7.04 74.2257 6.432C74.2257 5.848 74.0457 5.412 73.6857 5.124C73.3337 4.836 72.8457 4.692 72.2217 4.692L71.2137 4.752V0.599999H74.9577V1.488H72.1137V3.876L72.6297 3.852C73.4217 3.86 74.0457 4.08 74.5017 4.512C74.9577 4.944 75.1857 5.564 75.1857 6.372C75.1857 6.82 75.1097 7.22 74.9577 7.572C74.8057 7.916 74.5977 8.204 74.3337 8.436C74.0777 8.668 73.7737 8.844 73.4217 8.964C73.0697 9.084 72.6937 9.144 72.2937 9.144C71.9337 9.144 71.6297 9.124 71.3817 9.084C71.1337 9.044 70.9017 8.984 70.6857 8.904L70.9377 8.088C71.1217 8.16 71.3177 8.216 71.5257 8.256C71.7417 8.288 72.0057 8.304 72.3177 8.304ZM77.0088 5.1H79.9128V5.988H77.0088V5.1ZM86.529 6.468C86.529 6.836 86.473 7.184 86.361 7.512C86.249 7.832 86.085 8.116 85.869 8.364C85.653 8.604 85.385 8.796 85.065 8.94C84.745 9.076 84.381 9.144 83.973 9.144C83.573 9.144 83.213 9.08 82.893 8.952C82.573 8.824 82.297 8.636 82.065 8.388C81.833 8.132 81.653 7.82 81.525 7.452C81.405 7.084 81.345 6.66 81.345 6.18C81.345 5.388 81.445 4.66 81.645 3.996C81.853 3.324 82.137 2.74 82.497 2.244C82.857 1.748 83.281 1.348 83.769 1.044C84.265 0.732 84.801 0.536 85.377 0.456L85.581 1.224C85.133 1.304 84.725 1.456 84.357 1.68C83.989 1.904 83.665 2.18 83.385 2.508C83.113 2.836 82.889 3.204 82.713 3.612C82.537 4.02 82.417 4.44 82.353 4.872C82.481 4.656 82.697 4.46 83.001 4.284C83.305 4.1 83.677 4.008 84.117 4.008C84.869 4.008 85.457 4.224 85.881 4.656C86.313 5.088 86.529 5.692 86.529 6.468ZM85.533 6.564C85.533 5.996 85.401 5.568 85.137 5.28C84.873 4.992 84.465 4.848 83.913 4.848C83.521 4.848 83.181 4.944 82.893 5.136C82.613 5.328 82.417 5.544 82.305 5.784C82.289 5.896 82.281 5.988 82.281 6.06C82.281 6.132 82.281 6.212 82.281 6.3C82.281 6.548 82.313 6.792 82.377 7.032C82.449 7.272 82.557 7.488 82.701 7.68C82.845 7.864 83.021 8.016 83.229 8.136C83.445 8.248 83.697 8.304 83.985 8.304C84.217 8.304 84.425 8.26 84.609 8.172C84.801 8.084 84.965 7.964 85.101 7.812C85.237 7.66 85.341 7.476 85.413 7.26C85.493 7.044 85.533 6.812 85.533 6.564ZM88.4841 9L91.4961 1.968L92.0241 1.38L91.3161 1.488H87.8961V0.599999H92.9121V0.924L89.4561 9H88.4841ZM106.875 0.599999H107.691V10.56H106.875V0.599999ZM122.532 0.684C122.836 0.612 123.164 0.564 123.516 0.539999C123.868 0.516 124.216 0.504 124.56 0.504C124.928 0.504 125.3 0.54 125.676 0.611999C126.06 0.683999 126.408 0.816 126.72 1.008C127.032 1.2 127.284 1.464 127.476 1.8C127.676 2.136 127.776 2.564 127.776 3.084C127.776 3.596 127.684 4.028 127.5 4.38C127.316 4.732 127.072 5.02 126.768 5.244C126.464 5.46 126.116 5.616 125.724 5.712C125.332 5.808 124.928 5.856 124.512 5.856C124.472 5.856 124.404 5.856 124.308 5.856C124.22 5.856 124.124 5.856 124.02 5.856C123.924 5.848 123.828 5.84 123.732 5.832C123.636 5.824 123.568 5.816 123.528 5.808V9H122.532V0.684ZM124.584 1.368C124.376 1.368 124.176 1.372 123.984 1.38C123.792 1.388 123.64 1.408 123.528 1.44V4.92C123.568 4.936 123.632 4.948 123.72 4.956C123.808 4.956 123.9 4.96 123.996 4.968C124.092 4.968 124.184 4.968 124.272 4.968C124.36 4.968 124.424 4.968 124.464 4.968C124.736 4.968 125.004 4.944 125.268 4.896C125.54 4.84 125.784 4.744 126 4.608C126.216 4.472 126.388 4.28 126.516 4.032C126.652 3.784 126.72 3.468 126.72 3.084C126.72 2.756 126.656 2.484 126.528 2.268C126.408 2.044 126.244 1.868 126.036 1.74C125.836 1.604 125.608 1.508 125.352 1.452C125.096 1.396 124.84 1.368 124.584 1.368ZM128.633 3.444C128.937 3.26 129.289 3.124 129.689 3.036C130.097 2.948 130.521 2.904 130.961 2.904C131.377 2.904 131.709 2.96 131.957 3.072C132.213 3.184 132.405 3.332 132.533 3.516C132.669 3.692 132.757 3.888 132.797 4.104C132.845 4.32 132.869 4.536 132.869 4.752C132.869 5.232 132.857 5.7 132.833 6.156C132.809 6.612 132.797 7.044 132.797 7.452C132.797 7.748 132.809 8.028 132.833 8.292C132.857 8.556 132.901 8.8 132.965 9.024H132.257L132.005 8.184H131.945C131.873 8.296 131.781 8.408 131.669 8.52C131.565 8.624 131.437 8.72 131.285 8.808C131.133 8.888 130.957 8.956 130.757 9.012C130.557 9.068 130.329 9.096 130.073 9.096C129.817 9.096 129.577 9.056 129.353 8.976C129.137 8.896 128.949 8.784 128.789 8.64C128.629 8.488 128.501 8.308 128.405 8.1C128.317 7.892 128.273 7.656 128.273 7.392C128.273 7.04 128.345 6.748 128.489 6.516C128.633 6.276 128.833 6.088 129.089 5.952C129.353 5.808 129.665 5.708 130.025 5.652C130.393 5.588 130.797 5.556 131.237 5.556C131.349 5.556 131.457 5.556 131.561 5.556C131.673 5.556 131.785 5.564 131.897 5.58C131.921 5.34 131.933 5.124 131.933 4.932C131.933 4.492 131.845 4.184 131.669 4.008C131.493 3.832 131.173 3.744 130.709 3.744C130.573 3.744 130.425 3.756 130.265 3.78C130.113 3.796 129.953 3.824 129.785 3.864C129.625 3.896 129.469 3.94 129.317 3.996C129.173 4.044 129.045 4.1 128.933 4.164L128.633 3.444ZM130.337 8.256C130.561 8.256 130.761 8.228 130.937 8.172C131.113 8.108 131.265 8.032 131.393 7.944C131.521 7.848 131.625 7.744 131.705 7.632C131.793 7.52 131.857 7.412 131.897 7.308V6.312C131.785 6.304 131.669 6.3 131.549 6.3C131.437 6.292 131.325 6.288 131.213 6.288C130.965 6.288 130.721 6.304 130.481 6.336C130.249 6.36 130.041 6.412 129.857 6.492C129.681 6.564 129.537 6.668 129.425 6.804C129.321 6.932 129.269 7.096 129.269 7.296C129.269 7.576 129.369 7.808 129.569 7.992C129.769 8.168 130.025 8.256 130.337 8.256ZM135.234 4.068C135.498 3.684 135.79 3.416 136.11 3.264C136.43 3.104 136.83 3.024 137.31 3.024C138.046 3.024 138.61 3.264 139.002 3.744C139.402 4.224 139.602 4.932 139.602 5.868C139.602 6.948 139.37 7.764 138.906 8.316C138.45 8.868 137.81 9.144 136.986 9.144C136.106 9.144 135.446 8.84 135.006 8.232C134.566 7.624 134.346 6.668 134.346 5.364C134.346 4.676 134.378 4.088 134.442 3.6C134.514 3.112 134.614 2.7 134.742 2.364C134.878 2.028 135.038 1.76 135.222 1.56C135.414 1.36 135.626 1.204 135.858 1.092C136.098 0.972 136.358 0.888 136.638 0.84C136.918 0.792 137.218 0.751999 137.538 0.719999C137.954 0.679999 138.278 0.635999 138.51 0.588C138.75 0.532 138.942 0.436 139.086 0.3L139.194 1.164C139.114 1.236 139.026 1.296 138.93 1.344C138.834 1.392 138.718 1.432 138.582 1.464C138.446 1.496 138.282 1.524 138.09 1.548C137.906 1.572 137.69 1.592 137.442 1.608C137.098 1.632 136.794 1.676 136.53 1.74C136.274 1.796 136.05 1.912 135.858 2.088C135.674 2.256 135.526 2.5 135.414 2.82C135.31 3.132 135.238 3.548 135.198 4.068H135.234ZM135.342 6.012C135.342 6.316 135.374 6.608 135.438 6.888C135.502 7.168 135.598 7.416 135.726 7.632C135.862 7.84 136.034 8.004 136.242 8.124C136.45 8.244 136.694 8.304 136.974 8.304C137.526 8.304 137.934 8.108 138.198 7.716C138.47 7.316 138.606 6.728 138.606 5.952C138.606 5.648 138.578 5.368 138.522 5.112C138.466 4.856 138.378 4.636 138.258 4.452C138.138 4.26 137.986 4.116 137.802 4.02C137.618 3.916 137.398 3.864 137.142 3.864C136.518 3.856 136.062 4.04 135.774 4.416C135.486 4.784 135.342 5.316 135.342 6.012ZM140.779 6C140.779 4.984 141.003 4.208 141.451 3.672C141.907 3.128 142.559 2.856 143.407 2.856C143.855 2.856 144.243 2.932 144.571 3.084C144.907 3.228 145.183 3.44 145.399 3.72C145.615 3.992 145.775 4.324 145.879 4.716C145.983 5.1 146.035 5.528 146.035 6C146.035 7.016 145.807 7.796 145.351 8.34C144.903 8.876 144.255 9.144 143.407 9.144C142.959 9.144 142.567 9.072 142.231 8.928C141.903 8.776 141.631 8.564 141.415 8.292C141.199 8.012 141.039 7.68 140.935 7.296C140.831 6.904 140.779 6.472 140.779 6ZM141.775 6C141.775 6.304 141.803 6.596 141.859 6.876C141.923 7.156 142.019 7.4 142.147 7.608C142.275 7.816 142.443 7.984 142.651 8.112C142.859 8.24 143.111 8.304 143.407 8.304C144.495 8.312 145.039 7.544 145.039 6C145.039 5.688 145.007 5.392 144.943 5.112C144.887 4.832 144.795 4.588 144.667 4.38C144.539 4.172 144.371 4.008 144.163 3.888C143.955 3.76 143.703 3.696 143.407 3.696C142.319 3.688 141.775 4.456 141.775 6ZM151.19 3.84H149.306V9H148.346V3.84H146.462V3H151.19V3.84ZM152.047 3.444C152.351 3.26 152.703 3.124 153.103 3.036C153.511 2.948 153.935 2.904 154.375 2.904C154.791 2.904 155.123 2.96 155.371 3.072C155.627 3.184 155.819 3.332 155.947 3.516C156.083 3.692 156.171 3.888 156.211 4.104C156.259 4.32 156.283 4.536 156.283 4.752C156.283 5.232 156.271 5.7 156.247 6.156C156.223 6.612 156.211 7.044 156.211 7.452C156.211 7.748 156.223 8.028 156.247 8.292C156.271 8.556 156.315 8.8 156.379 9.024H155.671L155.419 8.184H155.359C155.287 8.296 155.195 8.408 155.083 8.52C154.979 8.624 154.851 8.72 154.699 8.808C154.547 8.888 154.371 8.956 154.171 9.012C153.971 9.068 153.743 9.096 153.487 9.096C153.231 9.096 152.991 9.056 152.767 8.976C152.551 8.896 152.363 8.784 152.203 8.64C152.043 8.488 151.915 8.308 151.819 8.1C151.731 7.892 151.687 7.656 151.687 7.392C151.687 7.04 151.759 6.748 151.903 6.516C152.047 6.276 152.247 6.088 152.503 5.952C152.767 5.808 153.079 5.708 153.439 5.652C153.807 5.588 154.211 5.556 154.651 5.556C154.763 5.556 154.871 5.556 154.975 5.556C155.087 5.556 155.199 5.564 155.311 5.58C155.335 5.34 155.347 5.124 155.347 4.932C155.347 4.492 155.259 4.184 155.083 4.008C154.907 3.832 154.587 3.744 154.123 3.744C153.987 3.744 153.839 3.756 153.679 3.78C153.527 3.796 153.367 3.824 153.199 3.864C153.039 3.896 152.883 3.94 152.731 3.996C152.587 4.044 152.459 4.1 152.347 4.164L152.047 3.444ZM153.751 8.256C153.975 8.256 154.175 8.228 154.351 8.172C154.527 8.108 154.679 8.032 154.807 7.944C154.935 7.848 155.039 7.744 155.119 7.632C155.207 7.52 155.271 7.412 155.311 7.308V6.312C155.199 6.304 155.083 6.3 154.963 6.3C154.851 6.292 154.739 6.288 154.627 6.288C154.379 6.288 154.135 6.304 153.895 6.336C153.663 6.36 153.455 6.412 153.271 6.492C153.095 6.564 152.951 6.668 152.839 6.804C152.735 6.932 152.683 7.096 152.683 7.296C152.683 7.576 152.783 7.808 152.983 7.992C153.183 8.168 153.439 8.256 153.751 8.256ZM162.476 8.52C162.236 8.712 161.932 8.864 161.564 8.976C161.204 9.088 160.82 9.144 160.412 9.144C159.956 9.144 159.56 9.072 159.224 8.928C158.888 8.776 158.612 8.564 158.396 8.292C158.18 8.012 158.02 7.68 157.916 7.296C157.812 6.912 157.76 6.48 157.76 6C157.76 4.976 157.988 4.196 158.444 3.66C158.9 3.124 159.552 2.856 160.4 2.856C160.672 2.856 160.944 2.888 161.216 2.952C161.488 3.008 161.732 3.12 161.948 3.288C162.164 3.456 162.34 3.696 162.476 4.008C162.612 4.312 162.68 4.716 162.68 5.22C162.68 5.484 162.656 5.776 162.608 6.096H158.756C158.756 6.448 158.792 6.76 158.864 7.032C158.936 7.304 159.048 7.536 159.2 7.728C159.352 7.912 159.548 8.056 159.788 8.16C160.036 8.256 160.336 8.304 160.688 8.304C160.96 8.304 161.232 8.256 161.504 8.16C161.776 8.064 161.98 7.952 162.116 7.824L162.476 8.52ZM160.412 3.696C159.94 3.696 159.56 3.82 159.272 4.068C158.992 4.316 158.824 4.74 158.768 5.34H161.744C161.744 4.732 161.628 4.308 161.396 4.068C161.164 3.82 160.836 3.696 160.412 3.696ZM169.146 5.436L169.218 4.296H169.158L168.726 5.22L167.274 7.572H166.938L165.426 5.22L165.03 4.296H164.982L165.078 5.424V9H164.19V3H165.138L166.818 5.688L167.166 6.384H167.19L167.55 5.664L169.122 3H170.082V9H169.146V5.436ZM175.519 9L178.531 1.968L179.059 1.38L178.351 1.488H174.931V0.599999H179.947V0.924L176.491 9H175.519ZM189.521 10.524H188.873L188.693 9H184.181L184.001 10.524H183.353V8.16H184.061C184.125 8.072 184.209 7.916 184.313 7.692C184.417 7.46 184.517 7.14 184.613 6.732C184.717 6.316 184.805 5.804 184.877 5.196C184.957 4.58 185.005 3.848 185.021 3H188.645V8.16H189.521V10.524ZM187.685 8.16V3.84H185.885C185.869 4.176 185.841 4.544 185.801 4.944C185.761 5.336 185.705 5.732 185.633 6.132C185.569 6.524 185.485 6.896 185.381 7.248C185.277 7.6 185.157 7.904 185.021 8.16H187.685ZM194.381 6.348H191.669V9H190.709V3H191.669V5.508H194.381V3H195.341V9H194.381V6.348ZM201.57 8.52C201.33 8.712 201.026 8.864 200.658 8.976C200.298 9.088 199.914 9.144 199.506 9.144C199.05 9.144 198.654 9.072 198.318 8.928C197.982 8.776 197.706 8.564 197.49 8.292C197.274 8.012 197.114 7.68 197.01 7.296C196.906 6.912 196.854 6.48 196.854 6C196.854 4.976 197.082 4.196 197.538 3.66C197.994 3.124 198.646 2.856 199.494 2.856C199.766 2.856 200.038 2.888 200.31 2.952C200.582 3.008 200.826 3.12 201.042 3.288C201.258 3.456 201.434 3.696 201.57 4.008C201.706 4.312 201.774 4.716 201.774 5.22C201.774 5.484 201.75 5.776 201.702 6.096H197.85C197.85 6.448 197.886 6.76 197.958 7.032C198.03 7.304 198.142 7.536 198.294 7.728C198.446 7.912 198.642 8.056 198.882 8.16C199.13 8.256 199.43 8.304 199.782 8.304C200.054 8.304 200.326 8.256 200.598 8.16C200.87 8.064 201.074 7.952 201.21 7.824L201.57 8.52ZM199.506 3.696C199.034 3.696 198.654 3.82 198.366 4.068C198.086 4.316 197.918 4.74 197.862 5.34H200.838C200.838 4.732 200.722 4.308 200.49 4.068C200.258 3.82 199.93 3.696 199.506 3.696ZM207.027 5.448L207.063 4.704H207.027L206.535 5.472L203.835 9H203.283V3H204.243V6.66L204.207 7.368H204.255L204.723 6.624L207.423 3H207.987V9H207.027V5.448ZM204.663 0.576C204.743 0.944 204.879 1.2 205.071 1.344C205.271 1.488 205.499 1.56 205.755 1.56C206.011 1.56 206.239 1.484 206.439 1.332C206.639 1.18 206.775 0.931999 206.847 0.588L207.567 0.816C207.495 1.28 207.287 1.636 206.943 1.884C206.607 2.132 206.203 2.256 205.731 2.256C205.515 2.256 205.299 2.228 205.083 2.172C204.875 2.116 204.687 2.032 204.519 1.92C204.351 1.808 204.207 1.664 204.087 1.488C203.967 1.312 203.887 1.104 203.847 0.864L204.663 0.576ZM213.033 3.012C213.313 2.996 213.605 2.976 213.909 2.952C214.221 2.928 214.605 2.916 215.061 2.916C215.853 2.916 216.421 3.04 216.765 3.288C217.109 3.528 217.281 3.896 217.281 4.392C217.281 4.672 217.197 4.948 217.029 5.22C216.869 5.484 216.601 5.68 216.225 5.808V5.856C216.697 5.944 217.029 6.108 217.221 6.348C217.413 6.588 217.509 6.908 217.509 7.308C217.509 7.932 217.285 8.384 216.837 8.664C216.389 8.944 215.717 9.084 214.821 9.084C214.485 9.084 214.173 9.072 213.885 9.048C213.597 9.032 213.313 9.012 213.033 8.988V3.012ZM213.993 8.196C214.145 8.212 214.293 8.224 214.437 8.232C214.589 8.24 214.765 8.244 214.965 8.244C215.501 8.244 215.897 8.168 216.153 8.016C216.417 7.864 216.549 7.604 216.549 7.236C216.549 6.948 216.437 6.716 216.213 6.54C215.997 6.356 215.609 6.264 215.049 6.264H213.993V8.196ZM215.169 5.532C215.313 5.532 215.453 5.508 215.589 5.46C215.725 5.412 215.845 5.348 215.949 5.268C216.061 5.18 216.149 5.08 216.213 4.968C216.285 4.856 216.321 4.736 216.321 4.608C216.321 4.288 216.225 4.068 216.033 3.948C215.841 3.82 215.505 3.756 215.025 3.756C214.769 3.756 214.565 3.76 214.413 3.768C214.269 3.776 214.129 3.784 213.993 3.792V5.532H215.169ZM225.893 6.348H223.181V9H222.221V3H223.181V5.508H225.893V3H226.853V9H225.893V6.348ZM233.081 8.52C232.841 8.712 232.537 8.864 232.169 8.976C231.809 9.088 231.425 9.144 231.017 9.144C230.561 9.144 230.165 9.072 229.829 8.928C229.493 8.776 229.217 8.564 229.001 8.292C228.785 8.012 228.625 7.68 228.521 7.296C228.417 6.912 228.365 6.48 228.365 6C228.365 4.976 228.593 4.196 229.049 3.66C229.505 3.124 230.157 2.856 231.005 2.856C231.277 2.856 231.549 2.888 231.821 2.952C232.093 3.008 232.337 3.12 232.553 3.288C232.769 3.456 232.945 3.696 233.081 4.008C233.217 4.312 233.285 4.716 233.285 5.22C233.285 5.484 233.261 5.776 233.213 6.096H229.361C229.361 6.448 229.397 6.76 229.469 7.032C229.541 7.304 229.653 7.536 229.805 7.728C229.957 7.912 230.153 8.056 230.393 8.16C230.641 8.256 230.941 8.304 231.293 8.304C231.565 8.304 231.837 8.256 232.109 8.16C232.381 8.064 232.585 7.952 232.721 7.824L233.081 8.52ZM231.017 3.696C230.545 3.696 230.165 3.82 229.877 4.068C229.597 4.316 229.429 4.74 229.373 5.34H232.349C232.349 4.732 232.233 4.308 232.001 4.068C231.769 3.82 231.441 3.696 231.017 3.696ZM239.83 10.524H239.182L239.002 9H234.49L234.31 10.524H233.662V8.16H234.37C234.434 8.072 234.518 7.916 234.622 7.692C234.726 7.46 234.826 7.14 234.922 6.732C235.026 6.316 235.114 5.804 235.186 5.196C235.266 4.58 235.314 3.848 235.33 3H238.954V8.16H239.83V10.524ZM237.994 8.16V3.84H236.194C236.178 4.176 236.15 4.544 236.11 4.944C236.07 5.336 236.014 5.732 235.942 6.132C235.878 6.524 235.794 6.896 235.69 7.248C235.586 7.6 235.466 7.904 235.33 8.16H237.994ZM245.398 8.52C245.158 8.712 244.854 8.864 244.486 8.976C244.126 9.088 243.742 9.144 243.334 9.144C242.878 9.144 242.482 9.072 242.146 8.928C241.81 8.776 241.534 8.564 241.318 8.292C241.102 8.012 240.942 7.68 240.838 7.296C240.734 6.912 240.682 6.48 240.682 6C240.682 4.976 240.91 4.196 241.366 3.66C241.822 3.124 242.474 2.856 243.322 2.856C243.594 2.856 243.866 2.888 244.138 2.952C244.41 3.008 244.654 3.12 244.87 3.288C245.086 3.456 245.262 3.696 245.398 4.008C245.534 4.312 245.602 4.716 245.602 5.22C245.602 5.484 245.578 5.776 245.53 6.096H241.678C241.678 6.448 241.714 6.76 241.786 7.032C241.858 7.304 241.97 7.536 242.122 7.728C242.274 7.912 242.47 8.056 242.71 8.16C242.958 8.256 243.258 8.304 243.61 8.304C243.882 8.304 244.154 8.256 244.426 8.16C244.698 8.064 244.902 7.952 245.038 7.824L245.398 8.52ZM243.334 3.696C242.862 3.696 242.482 3.82 242.194 4.068C241.914 4.316 241.746 4.74 241.69 5.34H244.666C244.666 4.732 244.55 4.308 244.318 4.068C244.086 3.82 243.758 3.696 243.334 3.696ZM250.07 3.84H248.33C248.306 4.176 248.282 4.54 248.258 4.932C248.234 5.316 248.198 5.704 248.15 6.096C248.102 6.48 248.038 6.852 247.958 7.212C247.878 7.564 247.774 7.876 247.646 8.148C247.526 8.42 247.374 8.64 247.19 8.808C247.014 8.968 246.802 9.048 246.554 9.048C246.402 9.048 246.27 9.04 246.158 9.024C246.046 9.008 245.946 8.98 245.858 8.94L246.002 8.136C246.098 8.168 246.202 8.184 246.314 8.184C246.474 8.184 246.618 8.116 246.746 7.98C246.874 7.844 246.986 7.588 247.082 7.212C247.178 6.828 247.258 6.3 247.322 5.628C247.386 4.956 247.43 4.08 247.454 3H251.03V9H250.07V3.84ZM257.533 9.144C257.101 9.144 256.729 9.08 256.417 8.952C256.113 8.816 255.861 8.628 255.661 8.388C255.469 8.14 255.321 7.844 255.217 7.5C255.121 7.148 255.061 6.764 255.037 6.348H253.837V9H252.877V3H253.837V5.508H255.049C255.113 4.652 255.345 3.996 255.745 3.54C256.153 3.084 256.757 2.856 257.557 2.856C257.997 2.856 258.369 2.932 258.673 3.084C258.985 3.228 259.237 3.44 259.429 3.72C259.629 3.992 259.773 4.324 259.861 4.716C259.949 5.1 259.993 5.528 259.993 6C259.993 7.016 259.789 7.796 259.381 8.34C258.981 8.876 258.365 9.144 257.533 9.144ZM255.985 6C255.985 6.312 256.009 6.608 256.057 6.888C256.105 7.168 256.189 7.416 256.309 7.632C256.429 7.84 256.589 8.004 256.789 8.124C256.997 8.244 257.253 8.304 257.557 8.304C258.069 8.304 258.437 8.12 258.661 7.752C258.885 7.376 258.997 6.792 258.997 6C258.997 5.688 258.973 5.392 258.925 5.112C258.885 4.832 258.809 4.588 258.697 4.38C258.585 4.164 258.437 3.996 258.253 3.876C258.069 3.756 257.833 3.696 257.545 3.696C256.993 3.696 256.593 3.884 256.345 4.26C256.105 4.628 255.985 5.208 255.985 6ZM274.395 0.599999H275.211V10.56H274.395V0.599999ZM289.655 3.144C289.655 2.76 289.711 2.404 289.823 2.076C289.935 1.748 290.099 1.464 290.315 1.224C290.531 0.984 290.799 0.796 291.119 0.659999C291.447 0.524 291.827 0.456 292.259 0.456C293.075 0.456 293.711 0.72 294.167 1.248C294.623 1.776 294.851 2.52 294.851 3.48C294.851 4.384 294.747 5.176 294.539 5.856C294.339 6.528 294.059 7.096 293.699 7.56C293.339 8.024 292.911 8.388 292.415 8.652C291.927 8.908 291.395 9.072 290.819 9.144L290.603 8.376C291.067 8.304 291.483 8.168 291.851 7.968C292.227 7.768 292.547 7.516 292.811 7.212C293.083 6.908 293.303 6.564 293.471 6.18C293.639 5.788 293.755 5.364 293.819 4.908C293.603 5.164 293.363 5.344 293.099 5.448C292.843 5.544 292.503 5.592 292.079 5.592C291.751 5.592 291.439 5.54 291.143 5.436C290.855 5.324 290.599 5.164 290.375 4.956C290.151 4.748 289.975 4.492 289.847 4.188C289.719 3.884 289.655 3.536 289.655 3.144ZM290.651 3.048C290.651 3.616 290.799 4.044 291.095 4.332C291.399 4.612 291.795 4.752 292.283 4.752C292.675 4.752 293.011 4.688 293.291 4.56C293.571 4.432 293.771 4.264 293.891 4.056C293.907 3.952 293.915 3.86 293.915 3.78C293.915 3.7 293.915 3.616 293.915 3.528C293.915 3.24 293.879 2.964 293.807 2.7C293.743 2.428 293.643 2.188 293.507 1.98C293.371 1.764 293.191 1.596 292.967 1.476C292.751 1.356 292.495 1.296 292.199 1.296C291.711 1.296 291.331 1.452 291.059 1.764C290.787 2.068 290.651 2.496 290.651 3.048ZM296.662 3.612C296.662 3.396 296.722 3.228 296.842 3.108C296.97 2.98 297.138 2.916 297.346 2.916C297.562 2.916 297.734 2.98 297.862 3.108C297.99 3.228 298.054 3.396 298.054 3.612C298.054 3.82 297.99 3.988 297.862 4.116C297.734 4.244 297.562 4.308 297.346 4.308C297.138 4.308 296.97 4.244 296.842 4.116C296.722 3.988 296.662 3.82 296.662 3.612ZM296.662 8.448C296.662 8.232 296.722 8.064 296.842 7.944C296.97 7.816 297.138 7.752 297.346 7.752C297.562 7.752 297.734 7.816 297.862 7.944C297.99 8.064 298.054 8.232 298.054 8.448C298.054 8.656 297.99 8.824 297.862 8.952C297.734 9.08 297.562 9.144 297.346 9.144C297.138 9.144 296.97 9.08 296.842 8.952C296.722 8.824 296.662 8.656 296.662 8.448ZM298.711 4.8C298.711 3.36 298.943 2.276 299.407 1.548C299.879 0.82 300.563 0.456 301.459 0.456C302.427 0.456 303.127 0.816 303.559 1.536C303.999 2.248 304.219 3.336 304.219 4.8C304.219 6.24 303.983 7.324 303.511 8.052C303.047 8.78 302.363 9.144 301.459 9.144C300.507 9.144 299.811 8.764 299.371 8.004C298.931 7.244 298.711 6.176 298.711 4.8ZM299.707 4.8C299.707 5.32 299.739 5.796 299.803 6.228C299.875 6.652 299.983 7.02 300.127 7.332C300.271 7.636 300.451 7.876 300.667 8.052C300.891 8.22 301.155 8.304 301.459 8.304C302.067 8.304 302.511 8.024 302.791 7.464C303.079 6.896 303.223 6.008 303.223 4.8C303.223 4.288 303.191 3.816 303.127 3.384C303.071 2.952 302.971 2.58 302.827 2.268C302.691 1.956 302.511 1.716 302.287 1.548C302.063 1.38 301.787 1.296 301.459 1.296C300.859 1.296 300.415 1.58 300.127 2.148C299.847 2.716 299.707 3.6 299.707 4.8ZM305.25 4.8C305.25 3.36 305.482 2.276 305.946 1.548C306.418 0.82 307.102 0.456 307.998 0.456C308.966 0.456 309.666 0.816 310.098 1.536C310.538 2.248 310.758 3.336 310.758 4.8C310.758 6.24 310.522 7.324 310.05 8.052C309.586 8.78 308.902 9.144 307.998 9.144C307.046 9.144 306.35 8.764 305.91 8.004C305.47 7.244 305.25 6.176 305.25 4.8ZM306.246 4.8C306.246 5.32 306.278 5.796 306.342 6.228C306.414 6.652 306.522 7.02 306.666 7.332C306.81 7.636 306.99 7.876 307.206 8.052C307.43 8.22 307.694 8.304 307.998 8.304C308.606 8.304 309.05 8.024 309.33 7.464C309.618 6.896 309.762 6.008 309.762 4.8C309.762 4.288 309.73 3.816 309.666 3.384C309.61 2.952 309.51 2.58 309.366 2.268C309.23 1.956 309.05 1.716 308.826 1.548C308.602 1.38 308.326 1.296 307.998 1.296C307.398 1.296 306.954 1.58 306.666 2.148C306.386 2.716 306.246 3.6 306.246 4.8ZM314.928 5.1H321.936V5.988H314.928V5.1ZM326.89 8.112H328.57V2.304L328.69 1.596L328.21 2.16L326.89 3.108L326.434 2.496L329.074 0.456H329.506V8.112H331.15V9H326.89V8.112ZM332.949 6.996C332.949 6.492 333.081 6.056 333.345 5.688C333.609 5.312 334.021 4.972 334.581 4.668C334.381 4.548 334.193 4.424 334.017 4.296C333.849 4.16 333.697 4.008 333.561 3.84C333.433 3.672 333.329 3.484 333.249 3.276C333.177 3.068 333.141 2.828 333.141 2.556C333.141 2.244 333.193 1.96 333.297 1.704C333.409 1.448 333.565 1.228 333.765 1.044C333.973 0.859999 334.217 0.715999 334.497 0.611999C334.785 0.508 335.109 0.456 335.469 0.456C335.805 0.456 336.109 0.504 336.381 0.599999C336.653 0.696 336.881 0.828 337.065 0.995999C337.257 1.164 337.405 1.364 337.509 1.596C337.613 1.828 337.665 2.084 337.665 2.364C337.665 2.82 337.561 3.224 337.353 3.576C337.145 3.92 336.801 4.26 336.321 4.596C336.529 4.716 336.725 4.848 336.909 4.992C337.101 5.136 337.265 5.296 337.401 5.472C337.545 5.648 337.657 5.848 337.737 6.072C337.817 6.288 337.857 6.536 337.857 6.816C337.857 7.16 337.801 7.476 337.689 7.764C337.577 8.044 337.413 8.288 337.197 8.496C336.981 8.696 336.717 8.856 336.405 8.976C336.093 9.088 335.737 9.144 335.337 9.144C334.953 9.144 334.613 9.088 334.317 8.976C334.021 8.864 333.769 8.712 333.561 8.52C333.361 8.328 333.209 8.104 333.105 7.848C333.001 7.584 332.949 7.3 332.949 6.996ZM336.921 6.876C336.921 6.636 336.873 6.428 336.777 6.252C336.681 6.068 336.553 5.904 336.393 5.76C336.241 5.608 336.065 5.472 335.865 5.352C335.665 5.232 335.457 5.116 335.241 5.004C334.753 5.276 334.405 5.58 334.197 5.916C333.989 6.252 333.885 6.572 333.885 6.876C333.885 7.068 333.917 7.252 333.981 7.428C334.045 7.604 334.141 7.756 334.269 7.884C334.397 8.012 334.553 8.116 334.737 8.196C334.929 8.268 335.149 8.304 335.397 8.304C335.597 8.304 335.789 8.276 335.973 8.22C336.157 8.156 336.317 8.068 336.453 7.956C336.597 7.836 336.709 7.688 336.789 7.512C336.877 7.328 336.921 7.116 336.921 6.876ZM334.077 2.532C334.077 2.756 334.121 2.956 334.209 3.132C334.297 3.3 334.413 3.452 334.557 3.588C334.709 3.724 334.881 3.852 335.073 3.972C335.265 4.084 335.465 4.192 335.673 4.296C336.033 4.016 336.297 3.74 336.465 3.468C336.641 3.196 336.729 2.896 336.729 2.568C336.729 2.16 336.601 1.848 336.345 1.632C336.097 1.408 335.797 1.296 335.445 1.296C335.229 1.296 335.037 1.332 334.869 1.404C334.701 1.476 334.557 1.568 334.437 1.68C334.317 1.792 334.225 1.924 334.161 2.076C334.105 2.22 334.077 2.372 334.077 2.532ZM339.764 3.612C339.764 3.396 339.824 3.228 339.944 3.108C340.072 2.98 340.24 2.916 340.448 2.916C340.664 2.916 340.836 2.98 340.964 3.108C341.092 3.228 341.156 3.396 341.156 3.612C341.156 3.82 341.092 3.988 340.964 4.116C340.836 4.244 340.664 4.308 340.448 4.308C340.24 4.308 340.072 4.244 339.944 4.116C339.824 3.988 339.764 3.82 339.764 3.612ZM339.764 8.448C339.764 8.232 339.824 8.064 339.944 7.944C340.072 7.816 340.24 7.752 340.448 7.752C340.664 7.752 340.836 7.816 340.964 7.944C341.092 8.064 341.156 8.232 341.156 8.448C341.156 8.656 341.092 8.824 340.964 8.952C340.836 9.08 340.664 9.144 340.448 9.144C340.24 9.144 340.072 9.08 339.944 8.952C339.824 8.824 339.764 8.656 339.764 8.448ZM341.813 4.8C341.813 3.36 342.045 2.276 342.509 1.548C342.981 0.82 343.665 0.456 344.561 0.456C345.529 0.456 346.229 0.816 346.661 1.536C347.101 2.248 347.321 3.336 347.321 4.8C347.321 6.24 347.085 7.324 346.613 8.052C346.149 8.78 345.465 9.144 344.561 9.144C343.609 9.144 342.913 8.764 342.473 8.004C342.033 7.244 341.813 6.176 341.813 4.8ZM342.809 4.8C342.809 5.32 342.841 5.796 342.905 6.228C342.977 6.652 343.085 7.02 343.229 7.332C343.373 7.636 343.553 7.876 343.769 8.052C343.993 8.22 344.257 8.304 344.561 8.304C345.169 8.304 345.613 8.024 345.893 7.464C346.181 6.896 346.325 6.008 346.325 4.8C346.325 4.288 346.293 3.816 346.229 3.384C346.173 2.952 346.073 2.58 345.929 2.268C345.793 1.956 345.613 1.716 345.389 1.548C345.165 1.38 344.889 1.296 344.561 1.296C343.961 1.296 343.517 1.58 343.229 2.148C342.949 2.716 342.809 3.6 342.809 4.8ZM348.352 4.8C348.352 3.36 348.584 2.276 349.048 1.548C349.52 0.82 350.204 0.456 351.1 0.456C352.068 0.456 352.768 0.816 353.2 1.536C353.64 2.248 353.86 3.336 353.86 4.8C353.86 6.24 353.624 7.324 353.152 8.052C352.688 8.78 352.004 9.144 351.1 9.144C350.148 9.144 349.452 8.764 349.012 8.004C348.572 7.244 348.352 6.176 348.352 4.8ZM349.348 4.8C349.348 5.32 349.38 5.796 349.444 6.228C349.516 6.652 349.624 7.02 349.768 7.332C349.912 7.636 350.092 7.876 350.308 8.052C350.532 8.22 350.796 8.304 351.1 8.304C351.708 8.304 352.152 8.024 352.432 7.464C352.72 6.896 352.864 6.008 352.864 4.8C352.864 4.288 352.832 3.816 352.768 3.384C352.712 2.952 352.612 2.58 352.468 2.268C352.332 1.956 352.152 1.716 351.928 1.548C351.704 1.38 351.428 1.296 351.1 1.296C350.5 1.296 350.056 1.58 349.768 2.148C349.488 2.716 349.348 3.6 349.348 4.8Z" fill="#969696"/>
</svg>
