<svg width="119" height="29" viewBox="0 0 119 29" fill="none" xmlns="http://www.w3.org/2000/svg">
<path d="M38.4 21.3H32.7L31.3 25.4H29L34.4 10.3H36.9L42.3 25.4H39.9L38.4 21.3ZM33.4 19.4H37.9L35.7 12.8H35.6L33.4 19.4ZM53.9 19.9C53.9 23.3 52.1 25.5 49.4 25.5C48 25.6 46.7 24.8 46 23.6H45.9V29H43.7V14.3H45.9V16.1C46.6 14.9 47.9 14.1 49.4 14.2C52 14.2 53.9 16.4 53.9 19.9ZM51.6 19.9C51.6 17.7 50.5 16.2 48.7 16.2C47 16.2 45.9 17.7 45.9 19.9C45.9 22.1 47 23.6 48.7 23.6C50.4 23.6 51.6 22.1 51.6 19.9ZM65.8 19.9C65.8 23.3 64 25.5 61.3 25.5C59.9 25.6 58.6 24.8 57.9 23.6H57.8V29H55.6V14.3H57.8V16.1C58.5 14.9 59.8 14.1 61.3 14.2C64 14.2 65.8 16.4 65.8 19.9ZM63.5 19.9C63.5 17.7 62.4 16.2 60.6 16.2C58.9 16.2 57.8 17.7 57.8 19.9C57.8 22.1 58.9 23.6 60.6 23.6C62.4 23.6 63.5 22.1 63.5 19.9ZM73.7 21.1C73.9 22.6 75.3 23.6 77.3 23.6C79.2 23.6 80.5 22.6 80.5 21.3C80.5 20.1 79.7 19.4 77.8 18.9L75.9 18.4C73.2 17.7 71.9 16.4 71.9 14.3C71.9 11.7 74.1 9.9 77.3 9.9C80.4 9.9 82.6 11.7 82.7 14.3H80.5C80.4 12.8 79.1 11.9 77.3 11.9C75.5 11.9 74.3 12.8 74.3 14.2C74.3 15.3 75.1 15.9 77 16.4L78.6 16.8C81.7 17.5 82.9 18.8 82.9 21C82.9 23.8 80.7 25.6 77.2 25.6C73.9 25.6 71.7 23.9 71.5 21.1H73.7ZM87.7 11.7V14.3H89.8V16.1H87.7V22.2C87.7 23.1 88.1 23.6 89 23.6C89.2 23.6 89.5 23.6 89.7 23.5V25.3C89.3 25.4 88.9 25.4 88.5 25.4C86.3 25.4 85.4 24.6 85.4 22.4V16.1H83.8V14.3H85.4V11.7H87.7ZM90.9 19.9C90.9 16.4 92.9 14.3 96 14.3C99.1 14.3 101.1 16.5 101.1 19.9C101.1 23.4 99.1 25.5 96 25.5C92.9 25.5 90.9 23.3 90.9 19.9ZM98.9 19.9C98.9 17.5 97.8 16.1 96 16.1C94.2 16.1 93.1 17.5 93.1 19.9C93.1 22.3 94.2 23.7 96 23.7C97.9 23.6 98.9 22.2 98.9 19.9ZM103.1 14.3H105.2V16.2H105.3C105.6 15 106.7 14.2 107.9 14.2C108.2 14.2 108.4 14.2 108.7 14.3V16.4C108.4 16.3 108 16.3 107.7 16.3C107 16.3 106.4 16.5 106 17C105.6 17.5 105.3 18.1 105.4 18.8V25.3H103.2L103.1 14.3ZM118.9 22.1C118.6 24.1 116.7 25.5 114.2 25.5C111 25.5 109.1 23.4 109.1 19.9C109.1 16.4 111.1 14.2 114.1 14.2C117.1 14.2 119 16.3 119 19.6V20.4H111.3V20.5C111.2 21.3 111.5 22.1 112.1 22.7C112.7 23.3 113.4 23.6 114.3 23.6C115.4 23.7 116.4 23.1 116.8 22.1H118.9ZM111.3 18.8H116.7C116.7 18.1 116.5 17.3 116 16.8C115.5 16.3 114.8 16 114.1 16C113.4 16 112.7 16.3 112.1 16.8C111.6 17.4 111.3 18.1 111.3 18.8ZM32.6 0.4C33.6 0.3 34.5 0.7 35.1 1.4C35.8 2.1 36.1 3.1 35.9 4.1C35.9 6.5 34.7 7.9 32.5 7.9H30V0.4H32.6ZM31.1 6.8H32.4C33.1 6.8 33.7 6.6 34.2 6C34.7 5.5 34.9 4.8 34.8 4.1C34.9 3.4 34.7 2.7 34.2 2.2C33.8 1.7 33.1 1.4 32.4 1.4H31.1V6.8ZM37.2 5C37.1 4 37.6 3 38.4 2.5C39.2 2 40.3 2 41.1 2.5C41.9 3 42.4 4 42.3 5C42.4 6 41.9 7 41.1 7.5C40.3 8 39.2 8 38.4 7.5C37.6 7 37.1 6.1 37.2 5ZM41.2 5C41.2 3.8 40.7 3.1 39.8 3.1C38.9 3.1 38.4 3.8 38.4 5C38.4 6.2 38.9 7 39.8 7C40.7 7 41.2 6.3 41.2 5ZM49.1 7.9H48L46.9 3.7H46.8L45.7 7.9H44.6L43.1 2.2H44.2L45.2 6.5H45.3L46.4 2.2H47.4L48.5 6.5H48.6L49.6 2.2H50.7C50.6 2.2 49.1 7.9 49.1 7.9ZM51.8 2.2H52.8V3.1H52.9C53.2 2.4 53.8 2 54.5 2.1C55 2.1 55.6 2.3 55.9 2.7C56.3 3.1 56.4 3.7 56.4 4.2V7.9H55.3V4.5C55.3 3.6 54.9 3.1 54.1 3.1C53.7 3.1 53.4 3.2 53.1 3.5C52.8 3.8 52.7 4.2 52.8 4.5V7.8H51.7C51.8 7.9 51.8 2.2 51.8 2.2ZM58.1 0H59.2V7.9H58.1V0ZM60.7 5C60.6 4 61.1 3 61.9 2.5C62.7 2 63.8 2 64.6 2.5C65.4 3 65.9 4 65.8 5C65.9 6 65.4 7 64.6 7.5C63.8 8 62.7 8 61.9 7.5C61 7 60.6 6.1 60.7 5ZM64.7 5C64.7 3.8 64.2 3.1 63.3 3.1C62.4 3.1 61.9 3.8 61.9 5C61.9 6.2 62.4 7 63.3 7C64.1 7 64.7 6.3 64.7 5ZM66.9 6.3C66.9 5.3 67.6 4.7 68.9 4.6L70.4 4.5V4C70.4 3.4 70 3.1 69.3 3.1C68.7 3.1 68.3 3.3 68.2 3.7H67.2C67.3 2.7 68.2 2.1 69.4 2.1C70.8 2.1 71.5 2.8 71.5 4V7.9H70.5V7.1H70.4C70.1 7.7 69.4 8 68.8 8C68.3 8 67.9 7.9 67.5 7.6C67.1 7.2 66.9 6.8 66.9 6.3ZM70.4 5.8V5.3L69.1 5.4C68.4 5.5 68 5.7 68 6.2C68 6.7 68.4 7 69 7C69.3 7 69.7 6.9 69.9 6.7C70.2 6.5 70.3 6.2 70.4 5.8ZM72.8 5C72.8 3.2 73.7 2.1 75 2.1C75.7 2.1 76.3 2.5 76.7 3.1H76.8V0H77.9V7.9H76.9V7H76.8C76.5 7.6 75.8 8 75.1 8C73.7 8 72.8 6.8 72.8 5ZM73.9 5C73.9 6.2 74.4 6.9 75.3 6.9C76.2 6.9 76.8 6.2 76.8 5C76.8 3.8 76.2 3.1 75.3 3.1C74.5 3.1 73.9 3.8 73.9 5ZM82.3 5C82.2 4 82.7 3 83.5 2.5C84.3 2 85.4 2 86.2 2.5C87 3 87.5 4 87.4 5C87.5 6 87 7 86.2 7.5C85.4 8 84.3 8 83.5 7.5C82.7 7 82.2 6.1 82.3 5ZM86.3 5C86.3 3.8 85.8 3.1 84.9 3.1C84 3.1 83.5 3.8 83.5 5C83.5 6.2 84 7 84.9 7C85.8 7 86.3 6.3 86.3 5ZM88.8 2.2H89.8V3.1H89.9C90.2 2.4 90.8 2 91.5 2.1C92 2.1 92.6 2.3 92.9 2.7C93.3 3.1 93.4 3.7 93.4 4.2V7.9H92.3V4.5C92.3 3.6 91.9 3.1 91.1 3.1C90.7 3.1 90.4 3.2 90.1 3.5C89.9 3.8 89.7 4.2 89.8 4.5V7.8H88.7L88.8 2.2ZM99.4 0.799999V2.2H100.6V3.1H99.4V6C99.4 6.6 99.6 6.9 100.2 6.9C100.3 6.9 100.5 6.9 100.6 6.9V7.8C100.4 7.8 100.2 7.9 100 7.9C98.8 7.9 98.3 7.5 98.3 6.4V3.2H97.4V2.3H98.3V0.9L99.4 0.799999ZM102.1 0H103.2V3.1H103.3C103.6 2.4 104.2 2 104.9 2.1C105.4 2.1 106 2.3 106.3 2.7C106.7 3.1 106.8 3.7 106.8 4.2V7.9H105.7V4.5C105.7 3.6 105.3 3.1 104.5 3.1C104.1 3.1 103.8 3.2 103.5 3.5C103.2 3.8 103.1 4.2 103.1 4.5V7.8H102V0H102.1ZM112.9 6.3C112.6 7.4 111.6 8.1 110.6 7.9C109.9 7.9 109.2 7.6 108.7 7C108.2 6.4 108 5.7 108.1 4.9C108 4.2 108.2 3.4 108.7 2.8C109.2 2.2 109.9 1.9 110.6 1.9C112.1 1.9 113 3 113 4.8V5.2H109.2V5.3C109.2 5.7 109.3 6.1 109.6 6.4C109.9 6.7 110.3 6.9 110.7 6.9C111.2 7 111.7 6.7 112 6.2C111.9 6.3 112.9 6.3 112.9 6.3ZM109.2 4.5H111.9C111.9 4.1 111.8 3.7 111.5 3.5C111.3 3.2 110.9 3.1 110.5 3.1C110.1 3.1 109.8 3.3 109.5 3.5C109.3 3.8 109.2 4.1 109.2 4.5ZM17.5 13.8C17.5 11.8 18.6 9.9 20.3 8.8C19.2 7.2 17.5 6.3 15.6 6.2C13.6 6 11.7 7.4 10.7 7.4C9.7 7.4 8.1 6.2 6.4 6.3C4.2 6.4 2.2 7.6 1.1 9.6C-1.2 13.6 0.5 19.5 2.7 22.7C3.8 24.3 5.1 26 6.8 26C8.4 25.9 9.1 24.9 11 24.9C13 24.9 13.5 26 15.3 25.9C17.1 25.9 18.2 24.3 19.2 22.7C20 21.6 20.6 20.3 21 19C18.9 18.2 17.5 16.1 17.5 13.8ZM14.3 4.2C15.3 3 15.7 1.5 15.6 0C14.1 0.2 12.8 0.9 11.8 2C10.8 3.1 10.3 4.5 10.4 6C12 6 13.4 5.3 14.3 4.2Z" fill="white"/>
</svg>
