<svg width="105" height="105" viewBox="0 0 105 105" fill="none" xmlns="http://www.w3.org/2000/svg">
<path opacity="0.2" d="M52.5 105C81.4949 105 105 81.4949 105 52.5C105 23.5051 81.4949 0 52.5 0C23.5051 0 0 23.5051 0 52.5C0 81.4949 23.5051 105 52.5 105Z" fill="url(#paint0_linear_1_93)"/>
<path d="M52.75 79C67.2475 79 79 67.2475 79 52.75C79 38.2525 67.2475 26.5 52.75 26.5C38.2525 26.5 26.5 38.2525 26.5 52.75C26.5 67.2475 38.2525 79 52.75 79Z" fill="#00CCCC" stroke="#173753" stroke-width="3.402" stroke-linecap="round" stroke-linejoin="round"/>
<path d="M52.875 71.25C63.0232 71.25 71.25 63.0232 71.25 52.875C71.25 42.7268 63.0232 34.5 52.875 34.5C42.7268 34.5 34.5 42.7268 34.5 52.875C34.5 63.0232 42.7268 71.25 52.875 71.25Z" fill="#E5F9F9"/>
<path d="M47.1 53.925C49.1 53.925 50.575 52.6 50.575 50.625V47.475C50.575 45.5 49.1 44.175 47.1 44.175C45.1 44.175 43.625 45.5 43.625 47.475V50.625C43.625 52.6 45.1 53.925 47.1 53.925ZM48.05 61.35L58.55 46.425L56.6 45.025L46.125 59.95L48.05 61.35ZM47.1 51.875C46.375 51.875 45.85 51.3 45.85 50.575V47.525C45.85 46.8 46.375 46.25 47.1 46.25C47.825 46.25 48.375 46.825 48.375 47.525V50.575C48.375 51.3 47.825 51.875 47.1 51.875ZM57.55 62.325C59.55 62.325 61.025 61 61.025 59.025V55.875C61.025 53.9 59.55 52.575 57.55 52.575C55.55 52.575 54.1 53.9 54.1 55.875V59.025C54.1 61 55.55 62.325 57.55 62.325ZM57.55 60.275C56.825 60.275 56.325 59.7 56.325 58.975V55.925C56.325 55.2 56.825 54.65 57.55 54.65C58.275 54.65 58.825 55.225 58.825 55.925V58.975C58.825 59.7 58.275 60.275 57.55 60.275Z" fill="#173753"/>
<defs>
<linearGradient id="paint0_linear_1_93" x1="42.7308" y1="6.3861" x2="77.7095" y2="105" gradientUnits="userSpaceOnUse">
<stop stop-color="#00C9C9" stop-opacity="0.147"/>
<stop offset="1" stop-color="#00C9C9" stop-opacity="0.699"/>
</linearGradient>
</defs>
</svg>
