<svg width="126" height="30" viewBox="0 0 126 30" fill="none" xmlns="http://www.w3.org/2000/svg">
<path d="M63.7 16.4001C61.2 16.4001 59.1 18.5001 59.1 21.0001C59.1 23.5001 61.2 25.6001 63.7 25.6001C66.2 25.6001 68.3 23.6001 68.3 21.0001C68.3 19.8001 67.8 18.6001 67 17.7001C66.1 16.8001 64.9 16.4001 63.7 16.4001ZM63.7 23.7001C62.6 23.8001 61.5 23.2001 61 22.1001C60.5 21.1001 60.7 19.8001 61.5 19.0001C62.3 18.2001 63.5 17.9001 64.6 18.3001C65.7 18.7001 66.4 19.7001 66.4 20.9001C66.4 21.6001 66.2 22.3001 65.7 22.8001C65.1 23.4001 64.4 23.7001 63.7 23.7001ZM53.6 16.4001C51.1 16.4001 49 18.5001 49 21.0001C49 23.5001 51.1 25.6001 53.6 25.6001C56.1 25.6001 58.2 23.6001 58.2 21.0001C58.2 19.8001 57.7 18.6001 56.9 17.7001C56 16.8001 54.8 16.4001 53.6 16.4001ZM53.6 23.7001C52.5 23.8001 51.4 23.2001 50.9 22.1001C50.4 21.1001 50.6 19.8001 51.4 19.0001C52.2 18.2001 53.4 17.9001 54.5 18.3001C55.6 18.7001 56.3 19.7001 56.3 20.9001C56.3 21.6001 56.1 22.3001 55.6 22.8001C55 23.4001 54.3 23.7001 53.6 23.7001ZM41.6 17.8001V19.7001H46.3C46.2 20.6001 45.8 21.5001 45.2 22.1001C44.3 23.1001 42.9 23.6001 41.6 23.5001C38.7 23.5001 36.4 21.2001 36.4 18.3001C36.4 15.4001 38.7 13.1001 41.6 13.1001C42.9 13.1001 44.2 13.6001 45.1 14.5001L46.5 13.1001C45.2 11.8001 43.4 11.1001 41.6 11.1001C39 11.0001 36.5 12.3001 35.2 14.6001C33.9 16.8001 33.9 19.6001 35.2 21.9001C36.5 24.1001 39 25.5001 41.6 25.4001C43.5 25.5001 45.3 24.8001 46.6 23.4001C47.7 22.2001 48.3 20.5001 48.3 18.9001C48.3 18.5001 48.3 18.1001 48.2 17.7001L41.6 17.8001ZM90.6 19.3001C90 17.6001 88.5 16.4001 86.7 16.4001C85.5 16.4001 84.4 16.9001 83.5 17.8001C82.7 18.7001 82.3 19.8001 82.3 21.0001C82.3 22.2001 82.7 23.4001 83.6 24.2001C84.5 25.1001 85.6 25.5001 86.9 25.5001C88.4 25.5001 89.9 24.8001 90.7 23.5001L89.1 22.4001C88.6 23.2001 87.8 23.7001 86.8 23.7001C85.8 23.7001 85 23.2001 84.6 22.3001L90.8 19.8001L90.6 19.3001ZM84.4 20.8001C84.4 20.1001 84.6 19.5001 85 19.0001C85.5 18.5001 86.1 18.2001 86.8 18.2001C87.5 18.2001 88.2 18.5001 88.5 19.2001L84.4 20.8001ZM79.4 25.2001H81.4V11.8001H79.4V25.2001ZM76.1 17.4001C75.4 16.7001 74.5 16.3001 73.6 16.3001C71.1 16.4001 69.2 18.4001 69.2 20.9001C69.2 23.4001 71.1 25.4001 73.6 25.5001C74.5 25.5001 75.4 25.1001 76 24.4001H76.1V25.1001C76.1 26.9001 75.2 27.8001 73.6 27.8001C72.6 27.8001 71.7 27.1001 71.3 26.2001L69.5 26.9001C70.2 28.5001 71.8 29.6001 73.6 29.6001C76 29.6001 77.9 28.2001 77.9 24.8001V16.7001H76L76.1 17.4001ZM73.7 23.7001C72.3 23.6001 71.1 22.4001 71.1 20.9001C71.1 19.5001 72.2 18.2001 73.7 18.1001C74.4 18.1001 75.1 18.4001 75.5 19.0001C76 19.5001 76.2 20.2001 76.1 20.9001C76.2 21.6001 75.9 22.3001 75.5 22.8001C75.1 23.4001 74.4 23.7001 73.7 23.7001ZM100.1 11.8001H95.3V25.2001H97.3V20.1001H100.1C101.7 20.2001 103.2 19.4001 104 18.1001C104.8 16.8001 104.8 15.1001 104 13.7001C103.2 12.5001 101.7 11.7001 100.1 11.8001ZM100.1 18.3001H97.3V13.7001H100.2C101.5 13.7001 102.5 14.7001 102.5 16.0001C102.5 17.3001 101.4 18.3001 100.1 18.3001ZM112.6 16.3001C111.1 16.2001 109.7 17.0001 109 18.4001L110.8 19.1001C111.2 18.4001 111.9 18.0001 112.6 18.1001C113.1 18.0001 113.6 18.2001 114 18.5001C114.4 18.8001 114.7 19.3001 114.7 19.8001V20.0001C114 19.7001 113.3 19.5001 112.6 19.5001C110.7 19.5001 108.7 20.6001 108.7 22.5001C108.7 23.3001 109.1 24.1001 109.7 24.7001C110.3 25.3001 111.2 25.5001 112 25.5001C113 25.6001 114 25.1001 114.6 24.2001H114.7V25.3001H116.6V20.1001C116.7 17.7001 114.9 16.4001 112.6 16.3001ZM112.3 23.7001C111.6 23.7001 110.7 23.4001 110.7 22.6001C110.7 21.5001 111.8 21.2001 112.9 21.2001C113.5 21.2001 114.2 21.3001 114.7 21.7001C114.6 22.8001 113.6 23.7001 112.3 23.7001ZM123.8 16.6001L121.5 22.4001H121.4L119 16.6001H116.8L120.4 24.7001L118.3 29.2001H120.4L125.9 16.5001H123.8V16.6001ZM105.6 25.2001H107.6V11.8001H105.6V25.2001Z" fill="white"/>
<path d="M41.3 4.00005C41.3 4.80005 41 5.60005 40.5 6.10005C39.9 6.70005 39 7.10005 38.1 7.10005C36.7 7.10005 35.5 6.30005 35 5.00005C34.5 3.70005 34.8 2.30005 35.7 1.30005C36.3 0.700048 37.2 0.300049 38.1 0.300049C38.6 0.300049 39 0.400049 39.4 0.600049C39.8 0.800049 40.1 1.00005 40.4 1.30005L39.8 1.90005C39.4 1.40005 38.7 1.10005 38 1.10005C37.3 1.10005 36.7 1.40005 36.2 1.90005C35.7 2.40005 35.5 3.00005 35.5 3.70005C35.5 4.70005 36.1 5.70005 37 6.10005C37.9 6.50005 39 6.30005 39.8 5.60005C40.1 5.20005 40.3 4.80005 40.3 4.30005H38V3.50005H41.1C41.3 3.70005 41.3 3.80005 41.3 4.00005ZM46.2 1.30005H43.3V3.30005H46V4.10005H43.3V6.10005H46.2V7.00005H42.4V0.600049H46.2V1.30005ZM49.8 7.00005H49V1.30005H47.2V0.500049H51.7V1.30005H49.8V7.00005ZM54.8 7.00005V0.600049H55.6V7.00005H54.8ZM59.4 7.00005H58.6V1.30005H56.8V0.500049H61.3V1.30005H59.5V7.00005H59.4ZM69.6 6.10005C68.3 7.40005 66.2 7.40005 64.8 6.10005C63.5 4.80005 63.5 2.70005 64.8 1.30005C66.1 4.79221e-05 68.2 4.79221e-05 69.6 1.30005C70.9 2.70005 70.9 4.80005 69.6 6.10005ZM65.5 5.60005C66.5 6.60005 68.1 6.60005 69 5.60005C70 4.60005 70 2.90005 69 1.90005C68 0.900048 66.5 0.900048 65.5 1.90005C64.5 2.90005 64.5 4.60005 65.5 5.60005ZM71.7 7.00005V0.600049H72.7L75.9 5.60005V0.600049H76.7V7.00005H75.8L72.5 1.70005V7.00005H71.7Z" fill="white" stroke="white" stroke-width="0.5"/>
<path d="M1.29999 1.1001C0.899988 1.5001 0.799988 2.1001 0.799988 2.6001V26.4001C0.799988 26.9001 0.899988 27.5001 1.29999 27.9001L1.39999 28.0001L14.8 14.7001V14.4001L1.29999 1.1001Z" fill="url(#paint0_linear_1_237)"/>
<path d="M19.2 19.1001L14.8 14.7001V14.4001L19.2 9.90015L19.3 10.0001L24.6 13.0001C26.1 13.9001 26.1 15.2001 24.6 16.1001L19.3 19.1001H19.2Z" fill="url(#paint1_linear_1_237)"/>
<path d="M19.3 19L14.7 14.5L1.29999 27.9C1.89999 28.5 2.89999 28.5 3.49999 28L19.3 19Z" fill="url(#paint2_linear_1_237)"/>
<path d="M19.3 10.0001L3.49999 1.00007C2.79999 0.500072 1.89999 0.500072 1.29999 1.10007L14.8 14.5001L19.3 10.0001Z" fill="url(#paint3_linear_1_237)"/>
<path opacity="0.2" d="M19.2 18.9001L3.50001 27.8001C2.90001 28.3001 2.00001 28.3001 1.30001 27.8001L1.20001 27.9001L1.30001 28.0001C1.90001 28.5001 2.80001 28.5001 3.50001 28.0001L19.3 19.0001L19.2 18.9001Z" fill="black"/>
<path opacity="0.12" d="M1.29999 27.7C0.899988 27.3 0.799988 26.7 0.799988 26.2V26.4C0.799988 26.9 0.899988 27.5 1.29999 27.9V27.7ZM24.6 15.9L19.2 18.9L19.3 19L24.6 16C25.2 15.7 25.6 15.1 25.7 14.5C25.6 15.1 25.2 15.6 24.6 15.9Z" fill="black"/>
<path opacity="0.25" d="M3.49999 1.2L24.6 13.1C25.2 13.4 25.6 13.9 25.7 14.5C25.6 13.8 25.2 13.2 24.6 13L3.49999 1C1.99999 0.100001 0.799988 0.900001 0.799988 2.6V2.8C0.799988 1.1 1.99999 0.300001 3.49999 1.2Z" fill="white"/>
<defs>
<linearGradient id="paint0_linear_1_237" x1="9.40126" y1="2.42806" x2="-2.07528" y2="13.8356" gradientUnits="userSpaceOnUse">
<stop stop-color="#00A0FF"/>
<stop offset="0.01" stop-color="#00A1FF"/>
<stop offset="0.26" stop-color="#00BEFF"/>
<stop offset="0.51" stop-color="#00D2FF"/>
<stop offset="0.76" stop-color="#00DFFF"/>
<stop offset="1" stop-color="#00E3FF"/>
</linearGradient>
<linearGradient id="paint1_linear_1_237" x1="26.5864" y1="14.5001" x2="0.426117" y2="14.5001" gradientUnits="userSpaceOnUse">
<stop stop-color="#FFE000"/>
<stop offset="0.41" stop-color="#FFBD00"/>
<stop offset="0.78" stop-color="#FFA500"/>
<stop offset="1" stop-color="#FF9C00"/>
</linearGradient>
<linearGradient id="paint2_linear_1_237" x1="15.6441" y1="17.5835" x2="-3.92217" y2="37.0238" gradientUnits="userSpaceOnUse">
<stop stop-color="#FF3A44"/>
<stop offset="1" stop-color="#C31162"/>
</linearGradient>
<linearGradient id="paint3_linear_1_237" x1="-3.31221" y1="0.34232" x2="5.41995" y2="9.02369" gradientUnits="userSpaceOnUse">
<stop stop-color="#32A071"/>
<stop offset="0.07" stop-color="#2DA771"/>
<stop offset="0.48" stop-color="#15CF74"/>
<stop offset="0.8" stop-color="#06E775"/>
<stop offset="1" stop-color="#00F076"/>
</linearGradient>
</defs>
</svg>
