<svg width="109" height="10" viewBox="0 0 109 10" fill="none" xmlns="http://www.w3.org/2000/svg">
<path d="M18 5C18 2.23858 20.2386 0 23 0H68C70.7614 0 73 2.23858 73 5C73 7.76142 70.7614 10 68 10H23C20.2386 10 18 7.76142 18 5Z" fill="#00CCCC"/>
<path d="M99 5C99 2.23858 101.239 0 104 0C106.761 0 109 2.23858 109 5C109 7.76142 106.761 10 104 10C101.239 10 99 7.76142 99 5Z" fill="#E3E6E8"/>
<path d="M81 5C81 2.23858 83.2386 0 86 0C88.7614 0 91 2.23858 91 5C91 7.76142 88.7614 10 86 10C83.2386 10 81 7.76142 81 5Z" fill="#E3E6E8"/>
<path d="M0 5C0 2.23858 2.23858 0 5 0C7.76142 0 10 2.23858 10 5C10 7.76142 7.76142 10 5 10C2.23858 10 0 7.76142 0 5Z" fill="#E3E6E8"/>
</svg>
