<svg width="24" height="31" viewBox="0 0 24 31" fill="none" xmlns="http://www.w3.org/2000/svg">
<g clip-path="url(#clip0_1_139)">
<path d="M17.2 23.5V31L11.9 28.9L6.39999 31V23.4C7.79999 25.3 9.49999 24.9 11.2 24.1C11.5 24 11.8 24 12.1 24.1C14 24.9 15.8 25.4 17.2 23.5Z" fill="#00C9C9"/>
<path d="M11.8 6.29993C8.8 6.29993 6.5 8.69993 6.5 11.5999C6.5 14.5999 8.9 16.8999 11.8 16.8999C14.7 16.8999 17.1 14.4999 17.1 11.5999C17.1 8.69993 14.8 6.29993 11.8 6.29993Z" fill="#00C9C9"/>
<path d="M23.2 12.1L22.7 11.3C22.4 10.8 22.3 10.2 22.4 9.59995L22.7 8.39995C23 7.39995 22.5 6.29995 21.5 5.89995L20.6 5.49995C20 5.19995 19.7 4.69995 19.5 4.19995L19.1 2.99995C18.8 1.99995 17.8 1.39995 16.7 1.49995L15.7 1.59995C15.1 1.69995 14.5 1.49995 14 1.19995L13.1 0.399951C12.3 -0.200049 11.1 -0.200049 10.3 0.399951L9.59999 1.19995C9.2 1.49995 8.69999 1.69995 7.99999 1.69995L6.89999 1.49995C5.89999 1.39995 4.89999 2.09995 4.49999 2.99995L4.19999 3.99995C3.99999 4.59995 3.69999 5.09995 3.09999 5.29995L2.09999 5.79995C1.09999 6.29995 0.699994 7.29995 0.999994 8.39995L1.19999 9.39995C1.39999 9.99995 1.19999 10.5 0.999994 11.1L0.399994 12.1C-0.100006 13 -5.66244e-06 14.1 0.799994 14.8L1.49999 15.5C1.99999 15.9 2.19999 16.4 2.29999 17V18.2C2.39999 19.2 3.09999 20.0999 4.19999 20.2999L5.19999 20.5C5.79999 20.6 6.29999 20.7999 6.69999 21.4L7.39999 22.2999C7.99999 23.1999 9.09999 23.5 10.1 23.1L11 22.7C11.6 22.4 12.1 22.4 12.7 22.7L13.7 23.1C14.7 23.5 15.8 23.1999 16.4 22.2999L17 21.5C17.3 21 17.8 20.7 18.5 20.6L19.6 20.4C20.6 20.1999 21.4 19.2999 21.4 18.2999L21.5 17.2999C21.5 16.6999 21.7 16.1 22.2 15.7L23 14.9C23.6 14.1 23.8 13 23.2 12.1ZM11.9 18.6C7.99999 18.6 4.99999 15.5 4.99999 11.7C4.99999 7.89995 7.99999 4.79995 11.9 4.79995C15.7 4.79995 18.8 7.89995 18.8 11.7C18.7 15.5 15.7 18.6 11.9 18.6Z" fill="#00C9C9"/>
</g>
<defs>
<clipPath id="clip0_1_139">
<rect width="24" height="31" fill="white"/>
</clipPath>
</defs>
</svg>
