<svg width="90" height="78" viewBox="0 0 90 78" fill="none" xmlns="http://www.w3.org/2000/svg">
<path fill-rule="evenodd" clip-rule="evenodd" d="M7.15302 70.8631H83.12V24.2871H7.15302V70.8631Z" fill="#F0F1F1"/>
<path fill-rule="evenodd" clip-rule="evenodd" d="M75.551 69.9272H10.246C9.56604 69.9272 8.80904 69.8472 8.09004 69.8612V25.2222H80.026C80.706 25.2222 81.464 25.3022 82.183 25.2882V69.9272H75.55H75.551ZM83.12 23.3512H16.504C13.443 23.3512 10.348 23.2202 7.28904 23.3512C7.24404 23.3532 7.19904 23.3512 7.15304 23.3512C6.64704 23.3512 6.21704 23.7802 6.21704 24.2872V70.8632C6.21704 71.3682 6.64704 71.7982 7.15304 71.7982H73.769C76.83 71.7982 79.924 71.9292 82.984 71.7982C83.029 71.7962 83.074 71.7982 83.12 71.7982C83.394 71.7982 83.603 71.6982 83.752 71.5482L83.784 71.5182L83.801 71.5002C83.954 71.3502 84.055 71.1402 84.055 70.8632V24.2872C84.055 23.7812 83.627 23.3512 83.12 23.3512Z" fill="#292C6A"/>
<mask id="mask0_1_203" style="mask-type:alpha" maskUnits="userSpaceOnUse" x="0" y="0" width="90" height="78">
<path d="M0.486023 77.8311H89.853V0.297119H0.486023V77.8311Z" fill="white"/>
</mask>
<g mask="url(#mask0_1_203)">
<path fill-rule="evenodd" clip-rule="evenodd" d="M1.33099 75.9291H88.827V70.8621H1.33099V75.9291Z" fill="#F0F1F1"/>
<path fill-rule="evenodd" clip-rule="evenodd" d="M80.221 75.8972H4.99902C4.15902 75.8972 3.23302 75.8022 2.35702 75.8312V71.7972H85.339C86.179 71.7972 87.105 71.8932 87.982 71.8632V75.8962H80.221V75.8972ZM88.917 69.9272H12.206C8.67202 69.9272 5.10602 69.7862 1.57302 69.9272C1.52302 69.9292 1.47202 69.9272 1.42102 69.9272C0.916023 69.9272 0.486023 70.3552 0.486023 70.8622V76.8332C0.486023 77.3382 0.915023 77.7682 1.42102 77.7682H78.132C81.667 77.7682 85.233 77.9092 88.766 77.7682C88.816 77.7662 88.866 77.7682 88.917 77.7682C89.423 77.7682 89.853 77.3402 89.853 76.8332V70.8622C89.853 70.3572 89.424 69.9272 88.917 69.9272Z" fill="#292C6A"/>
<path fill-rule="evenodd" clip-rule="evenodd" d="M58.661 70.8622H76.104V40.0042H58.661V70.8622Z" fill="#39C0C4"/>
<path fill-rule="evenodd" clip-rule="evenodd" d="M60.848 69.9271H59.597V40.9391H75.169V69.9271H60.849H60.848ZM76.104 39.0681H58.661C58.156 39.0681 57.726 39.4971 57.726 40.0041V70.8631C57.726 71.3681 58.154 71.7981 58.661 71.7981H76.104C76.379 71.7981 76.587 71.6981 76.737 71.5481L76.768 71.5181L76.786 71.4991C76.938 71.3491 77.04 71.1391 77.04 70.8631V40.0031C77.04 39.4981 76.61 39.0681 76.104 39.0681Z" fill="#292C6A"/>
<path fill-rule="evenodd" clip-rule="evenodd" d="M15.361 54.5051H49.994V40.0042H15.361V54.5051Z" fill="#D4DAE0"/>
<path fill-rule="evenodd" clip-rule="evenodd" d="M38.285 53.5691H16.296V40.9391H49.058V53.5691H38.285ZM50.9291 40.0041C50.9291 39.4981 50.5 39.0681 49.994 39.0681H15.361C14.855 39.0681 14.425 39.4971 14.425 40.0041V54.5051C14.425 55.0111 14.854 55.4411 15.36 55.4411H49.993C50.2681 55.4411 50.4771 55.3411 50.626 55.1911L50.6581 55.1611L50.675 55.1421C50.828 54.9921 50.9291 54.7821 50.9291 54.5051V40.0041Z" fill="#292C6A"/>
<path fill-rule="evenodd" clip-rule="evenodd" d="M13.568 24.5272L17.403 1.23218H27.413L26.106 24.5272C26.106 24.5272 25.731 30.7962 19.836 30.7962C13.943 30.7962 13.569 24.5272 13.569 24.5272H13.568ZM38.641 24.5272V1.23218H51.177V24.5272C51.177 24.5272 50.989 30.7962 44.908 30.7962C38.828 30.7962 38.641 24.5272 38.641 24.5272ZM63.714 24.5272L63.339 1.23218H73.723L76.25 24.5272C76.25 24.5272 75.968 29.8602 70.73 30.7022C65.49 31.5442 63.84 26.7822 63.714 24.5272Z" fill="#F0F1F1"/>
<path fill-rule="evenodd" clip-rule="evenodd" d="M88.786 24.5272L83.922 1.23218H73.723L76.25 24.5272C76.25 24.5272 76.25 30.7962 82.518 30.7962C88.786 30.7962 88.786 24.5272 88.786 24.5272ZM27.414 1.23218H38.641V24.5282C38.641 24.5282 37.988 30.7022 32.373 30.7962C26.759 30.8892 26.105 24.5282 26.105 24.5282L27.414 1.23218ZM51.176 1.23218L51.177 24.5282C51.177 24.5282 51.459 30.8892 57.446 30.7962C63.432 30.7022 63.714 24.5282 63.714 24.5282L63.339 1.23218H51.176ZM17.403 1.23218L15.753 11.2562C15.057 15.4882 14.328 19.7162 13.663 23.9542C13.407 25.5812 13.101 27.0602 12.077 28.4242C10.932 29.9502 9.18903 30.7342 7.30003 30.7962C1.49903 30.9832 1.48303 24.3402 1.48303 24.3402L7.67303 1.23218H17.403Z" fill="#39C0C4"/>
<path fill-rule="evenodd" clip-rule="evenodd" d="M87.326 26.9111C86.616 28.5731 85.181 29.6071 83.386 29.8161C81.382 30.0501 79.251 29.4961 78.132 27.7091C77.539 26.7611 77.262 25.5741 77.192 24.6941L77.177 24.5191C77.19 23.4641 77.041 22.3691 76.883 21.2891C76.463 17.0561 75.916 12.8271 75.458 8.60312L74.76 2.16812H83.162L87.282 21.8921L87.849 24.6051C87.835 25.3351 87.675 26.0931 87.326 26.9111ZM75.261 24.9301C74.983 26.2951 74.426 27.5901 73.362 28.5311C71.676 30.0211 68.719 30.4191 66.867 29.0191C65.52 28.0011 64.76 26.1811 64.649 24.5271L64.638 23.7871V23.7851L64.533 17.2831L64.527 16.9141C64.447 12.0011 64.441 7.08012 64.295 2.16812H72.889L74.458 16.6301L74.809 19.8671C74.982 21.4611 75.138 23.0581 75.309 24.6521C75.312 24.8431 75.327 24.6041 75.261 24.9301ZM62.699 25.1221C62.654 25.3381 62.608 25.5521 62.55 25.7651C62.399 26.3221 62.193 26.8551 61.906 27.3571C61.19 28.6111 60.051 29.4431 58.633 29.7391C55.545 30.3841 53.08 28.6831 52.323 25.7291C52.167 25.1241 52.122 24.9211 52.113 24.5031V24.3951C52.177 23.2851 52.113 22.1591 52.113 21.0611V9.46712V2.16712H62.418L62.604 13.7191L62.734 21.7851V21.7861L62.777 24.4651C62.771 24.5821 62.763 24.6981 62.752 24.8151V24.8171L62.745 24.8531C62.731 24.9431 62.717 25.0331 62.699 25.1211V25.1221ZM50.235 24.6531C50.232 24.7131 50.224 24.7731 50.218 24.8331L50.208 24.9551C50.208 24.9451 50.208 24.9261 50.197 24.9991C50.099 25.5951 49.95 26.1951 49.719 26.7541C49.062 28.3411 47.785 29.4541 46.079 29.7661C43.839 30.1741 41.546 29.4221 40.409 27.3861C40.059 26.7631 39.837 26.0821 39.693 25.3841C39.601 24.9401 39.593 24.9851 39.577 24.5261V16.8271C39.577 11.9431 39.66 7.05112 39.585 2.16712H50.241V18.3791L50.242 22.6071C50.242 23.1541 50.232 23.6901 50.249 24.2251C50.246 24.3241 50.246 24.4231 50.242 24.5221L50.235 24.6541V24.6531ZM33.3 29.7771C30.264 30.3301 28.066 28.3511 27.276 25.5711C27.182 25.2381 27.105 24.8991 27.048 24.5581C27.192 23.2961 27.183 21.9981 27.253 20.7501C27.348 19.0481 27.443 17.3471 27.54 15.6451L28.297 2.16912H37.706V24.5261L37.693 24.5831C37.186 26.9771 35.925 29.2991 33.3 29.7761V29.7771ZM25.167 24.5621C25.161 24.6451 25.16 24.6791 25.16 24.6931C25.158 24.6951 25.154 24.7121 25.142 24.7821C25.045 25.3571 24.906 25.9261 24.698 26.4721C24.093 28.0651 22.905 29.3121 21.216 29.7131C19.018 30.2351 16.679 29.4971 15.492 27.5301C15.092 26.8651 14.825 26.1431 14.651 25.3901C14.599 25.1681 14.559 24.9451 14.524 24.7201C14.521 24.6901 14.511 24.6151 14.507 24.5581L17.039 9.17412C17.424 6.83912 17.809 4.50412 18.192 2.16812H26.426L25.74 14.3631L25.567 17.4531L25.535 18.0151L25.471 19.1491L25.289 22.4061C25.259 22.9161 25.217 23.4081 25.205 23.8971L25.171 24.4971L25.167 24.5621ZM12.451 25.3321C12.048 26.9941 11.186 28.4941 9.616 29.2901C8.39 29.9101 6.831 30.0641 5.518 29.6331C3.818 29.0771 2.962 27.4301 2.6 25.7861C2.476 25.2281 2.522 24.9831 2.422 24.4481L2.466 24.2861C2.77 23.2351 3.033 22.1701 3.316 21.1131L6.387 9.65012L8.392 2.16712H16.306L15.068 9.68712C14.876 10.8521 14.685 12.0171 14.49 13.1831C14.138 15.2981 13.782 17.4131 13.434 19.5301C13.362 19.9621 13.297 20.3981 13.234 20.8341C13.204 21.0111 13.174 21.1891 13.146 21.3661L12.691 24.1261C12.647 24.2361 12.626 24.3641 12.633 24.5111C12.577 24.7851 12.517 25.0591 12.451 25.3311V25.3321ZM89.686 24.2641L85.426 3.86712L84.822 0.984119C84.739 0.585119 84.312 0.297119 83.92 0.297119H7.674C7.265 0.297119 6.878 0.587119 6.771 0.984119L1.476 20.7471C1.193 21.8051 0.869002 22.8601 0.626002 23.9271C0.437002 24.7471 0.646002 25.6681 0.839002 26.4711C1.307 28.4031 2.417 30.2711 4.272 31.1391C7.01 32.4221 10.619 31.6121 12.563 29.3091C12.957 28.8421 13.27 28.3431 13.525 27.8211C14.387 29.5411 15.836 30.9361 17.752 31.4631C20.046 32.0951 22.689 31.6631 24.491 30.0681C25.193 29.4471 25.741 28.6621 26.151 27.8091C27.055 29.5971 28.533 31.0641 30.565 31.5391C33.873 32.3121 37.015 30.7511 38.545 27.8451C39.357 29.4851 40.725 30.8211 42.523 31.3901C44.797 32.1081 47.561 31.7661 49.435 30.2441C50.181 29.6381 50.762 28.8581 51.193 28.0001C52.101 29.7701 53.631 31.1601 55.693 31.5701C59.009 32.2271 62.185 30.8511 63.707 27.9241C64.963 30.3761 67.381 32.0341 70.458 31.6761C72.805 31.4031 74.965 30.0011 76.174 28.0081C76.406 28.4821 76.684 28.9341 77.02 29.3501C78.495 31.1751 80.863 31.8741 83.148 31.7071C86.97 31.4281 89.705 28.3371 89.723 24.5271C89.723 24.4301 89.708 24.3441 89.687 24.2631" fill="#292C6A"/>
</g>
</svg>
