<svg width="57" height="57" viewBox="0 0 57 57" fill="none" xmlns="http://www.w3.org/2000/svg">
<path d="M28.25 54.5C42.7475 54.5 54.5 42.7475 54.5 28.25C54.5 13.7525 42.7475 2 28.25 2C13.7525 2 2 13.7525 2 28.25C2 42.7475 13.7525 54.5 28.25 54.5Z" fill="#00CCCC" stroke="#173753" stroke-width="3.402" stroke-linecap="round" stroke-linejoin="round"/>
<path d="M28.25 46.625C38.3982 46.625 46.625 38.3982 46.625 28.25C46.625 18.1018 38.3982 9.875 28.25 9.875C18.1018 9.875 9.875 18.1018 9.875 28.25C9.875 38.3982 18.1018 46.625 28.25 46.625Z" fill="#E5F9F9"/>
<path d="M22 28.615H35.23M28.615 35.23L35.23 28.615L28.615 22V35.23Z" stroke="#173753" stroke-width="2.481" stroke-linecap="round" stroke-linejoin="round"/>
</svg>
