<svg width="31" height="32" viewBox="0 0 31 32" fill="none" xmlns="http://www.w3.org/2000/svg">
<path d="M7.39999 1H23.6C27.2 1 30.1 3.9 30.1 7.5V24.5C30.1 28.1 27.2 31 23.6 31H7.39999C3.79999 31 0.899994 28.1 0.899994 24.5V7.5C0.899994 3.9 3.79999 1 7.39999 1Z" stroke="#FF5678" stroke-width="1.3"/>
<path d="M12 17.2001C13.5 17.2001 14.5 16.2001 14.5 14.8001V12.5001C14.5 11.1001 13.5 10.1001 12 10.1001C10.5 10.1001 9.5 11.1001 9.5 12.5001V14.8001C9.5 16.2001 10.6 17.2001 12 17.2001ZM12.9 22.5001L20.4 11.8001L18.9 10.7001L11.4 21.4001L12.9 22.5001ZM12 15.6001C11.6 15.6001 11.2 15.3001 11.2 14.8001V12.6001C11.1 11.6001 12.8 11.6001 12.7 12.6001V14.8001C12.8 15.2001 12.5 15.6001 12 15.6001ZM19.7 23.2001C21.2 23.2001 22.3 22.2001 22.3 20.8001V18.5001C22.3 17.1001 21.2 16.1001 19.7 16.1001C18.2 16.1001 17.2 17.1001 17.2 18.5001V20.8001C17.2 22.2001 18.3 23.2001 19.7 23.2001ZM19.8 21.6001C19.3 21.6001 19 21.2001 19 20.8001V18.6001C19 18.2001 19.3 17.8001 19.8 17.8001C20.3 17.8001 20.6 18.1001 20.6 18.6001V20.8001C20.5 21.3001 20.2 21.6001 19.8 21.6001Z" fill="#FF5678"/>
</svg>
