<svg width="101" height="335" viewBox="0 0 101 335" fill="none" xmlns="http://www.w3.org/2000/svg">
<path d="M73.5 292.408C54.4 313.414 23.5 294.292 6.40001 272.851C3.40001 269.085 1.30001 264.014 0.400014 258.509C-3.49999 231.563 25.8 224.899 26.7 200.851C27.1 190.276 21.6 181.584 17.5 172.746C8.30002 152.61 5.70003 127.258 7.60003 103.209C9.50003 79.161 15.7 56.4165 23 34.6861C28.9 16.8672 39.5 -3.2696 52.7 1.07647C61.2 3.82899 66.7 16.1429 69.2 28.3119C72.6 44.9718 72.1 62.9356 69.8 80.1751C68.8 87.7083 67.4 95.5312 68.8 103.064C72.4 122.187 90.9 126.533 97.6 143.773C104.3 161.012 96.3 182.742 88.8 199.547C82.4 214.034 78.4 223.016 82.6 235.475C83.8 238.662 85.4 241.559 87.3 244.022C91.4 248.948 99 264.449 73.5 292.408Z" fill="#F8CD99"/>
<path d="M46.8 44.9718C46.8 51.346 40.7 358.179 40.7 358.179L58.3 360.352L46.8 44.9718Z" fill="#7C6242"/>
<path d="M51.1 230.549L86.9 175.644L48 225.913C47.1 227.072 47.1 229.101 47.9 230.404C48.7 231.708 50 231.853 51 230.694L51.1 230.549ZM44.2 134.646L29.6 92.7787L47 132.328C47.4 133.487 47.1 134.791 46.4 135.515C45.7 136.239 44.7 135.95 44.2 134.936C44.3 134.936 44.2 134.646 44.2 134.646Z" fill="#7C6242"/>
<path d="M49.5 221.857L84.7 145.366C84.7 145.366 49.5 221.857 49.5 221.857Z" fill="#9C4F5F"/>
</svg>
