<svg width="106" height="12" viewBox="0 0 106 12" fill="none" xmlns="http://www.w3.org/2000/svg">
<path d="M5.50197 2.52C5.50197 2.72 5.46997 2.924 5.40597 3.132C5.34197 3.34 5.24597 3.536 5.11797 3.72C4.98997 3.896 4.82597 4.052 4.62597 4.188C4.42597 4.324 4.18997 4.428 3.91797 4.5V4.548C4.15797 4.588 4.38597 4.656 4.60197 4.752C4.82597 4.848 5.02197 4.98 5.18997 5.148C5.35797 5.316 5.49397 5.52 5.59797 5.76C5.70197 6 5.75397 6.284 5.75397 6.612C5.75397 7.044 5.66197 7.42 5.47797 7.74C5.30197 8.052 5.06597 8.308 4.76997 8.508C4.48197 8.708 4.14997 8.856 3.77397 8.952C3.39797 9.048 3.01397 9.096 2.62197 9.096C2.48597 9.096 2.32597 9.096 2.14197 9.096C1.95797 9.096 1.76597 9.088 1.56597 9.072C1.36597 9.064 1.16597 9.048 0.965969 9.024C0.765969 9.008 0.589969 8.98 0.437969 8.94V0.672C0.733969 0.624 1.07797 0.583999 1.46997 0.551999C1.86197 0.52 2.28997 0.504 2.75397 0.504C3.06597 0.504 3.38197 0.532 3.70197 0.588C4.02997 0.635999 4.32597 0.735999 4.58997 0.887999C4.85397 1.032 5.06997 1.236 5.23797 1.5C5.41397 1.764 5.50197 2.104 5.50197 2.52ZM2.71797 8.232C2.97397 8.232 3.22197 8.204 3.46197 8.148C3.70197 8.084 3.91397 7.988 4.09797 7.86C4.28197 7.724 4.42597 7.56 4.52997 7.368C4.64197 7.176 4.69797 6.948 4.69797 6.684C4.69797 6.356 4.62997 6.092 4.49397 5.892C4.36597 5.692 4.19397 5.536 3.97797 5.424C3.76997 5.312 3.53397 5.236 3.26997 5.196C3.00597 5.156 2.74197 5.136 2.47797 5.136H1.43397V8.148C1.48997 8.164 1.56997 8.176 1.67397 8.184C1.77797 8.192 1.88997 8.2 2.00997 8.208C2.12997 8.216 2.25397 8.224 2.38197 8.232C2.50997 8.232 2.62197 8.232 2.71797 8.232ZM2.05797 4.296C2.19397 4.296 2.35797 4.292 2.54997 4.284C2.74197 4.276 2.90197 4.264 3.02997 4.248C3.22197 4.184 3.40197 4.108 3.56997 4.02C3.73797 3.924 3.88597 3.816 4.01397 3.696C4.14997 3.568 4.25397 3.424 4.32597 3.264C4.40597 3.096 4.44597 2.916 4.44597 2.724C4.44597 2.46 4.39397 2.244 4.28997 2.076C4.19397 1.9 4.06197 1.76 3.89397 1.656C3.72597 1.552 3.53397 1.48 3.31797 1.44C3.10197 1.392 2.88197 1.368 2.65797 1.368C2.39397 1.368 2.14997 1.376 1.92597 1.392C1.70997 1.4 1.54597 1.416 1.43397 1.44V4.296H2.05797ZM7.01378 6C7.01378 4.984 7.23778 4.208 7.68578 3.672C8.14178 3.128 8.79378 2.856 9.64178 2.856C10.0898 2.856 10.4778 2.932 10.8058 3.084C11.1418 3.228 11.4178 3.44 11.6338 3.72C11.8498 3.992 12.0098 4.324 12.1138 4.716C12.2178 5.1 12.2698 5.528 12.2698 6C12.2698 7.016 12.0418 7.796 11.5858 8.34C11.1378 8.876 10.4898 9.144 9.64178 9.144C9.19378 9.144 8.80178 9.072 8.46578 8.928C8.13778 8.776 7.86578 8.564 7.64978 8.292C7.43378 8.012 7.27378 7.68 7.16978 7.296C7.06578 6.904 7.01378 6.472 7.01378 6ZM8.00978 6C8.00978 6.304 8.03778 6.596 8.09378 6.876C8.15778 7.156 8.25378 7.4 8.38178 7.608C8.50978 7.816 8.67778 7.984 8.88578 8.112C9.09378 8.24 9.34578 8.304 9.64178 8.304C10.7298 8.312 11.2738 7.544 11.2738 6C11.2738 5.688 11.2418 5.392 11.1778 5.112C11.1218 4.832 11.0298 4.588 10.9018 4.38C10.7738 4.172 10.6058 4.008 10.3978 3.888C10.1898 3.76 9.93778 3.696 9.64178 3.696C8.55378 3.688 8.00978 4.456 8.00978 6ZM17.5274 5.448L17.5634 4.704H17.5274L17.0354 5.472L14.3354 9H13.7834V3H14.7434V6.66L14.7074 7.368H14.7554L15.2234 6.624L17.9234 3H18.4874V9H17.5274V5.448ZM15.1634 0.576C15.2434 0.944 15.3794 1.2 15.5714 1.344C15.7714 1.488 15.9994 1.56 16.2554 1.56C16.5114 1.56 16.7394 1.484 16.9394 1.332C17.1394 1.18 17.2754 0.931999 17.3474 0.588L18.0674 0.816C17.9954 1.28 17.7874 1.636 17.4434 1.884C17.1074 2.132 16.7034 2.256 16.2314 2.256C16.0154 2.256 15.7994 2.228 15.5834 2.172C15.3754 2.116 15.1874 2.032 15.0194 1.92C14.8514 1.808 14.7074 1.664 14.5874 1.488C14.4674 1.312 14.3874 1.104 14.3474 0.864L15.1634 0.576ZM24.1622 3.84H22.2782V9H21.3182V3.84H19.4342V3H24.1622V3.84ZM28.8594 5.448L28.8954 4.704H28.8594L28.3674 5.472L25.6674 9H25.1154V3H26.0754V6.66L26.0394 7.368H26.0874L26.5554 6.624L29.2554 3H29.8194V9H28.8594V5.448ZM37.8774 0.456L38.6334 0.792L34.2534 10.68L33.4974 10.344L37.8774 0.456ZM42.4028 0.684C42.7068 0.612 43.0348 0.564 43.3868 0.539999C43.7388 0.516 44.0868 0.504 44.4308 0.504C44.7988 0.504 45.1708 0.54 45.5468 0.611999C45.9308 0.683999 46.2788 0.816 46.5908 1.008C46.9028 1.2 47.1548 1.464 47.3468 1.8C47.5468 2.136 47.6468 2.564 47.6468 3.084C47.6468 3.596 47.5548 4.028 47.3708 4.38C47.1868 4.732 46.9428 5.02 46.6388 5.244C46.3348 5.46 45.9868 5.616 45.5948 5.712C45.2028 5.808 44.7988 5.856 44.3828 5.856C44.3428 5.856 44.2748 5.856 44.1788 5.856C44.0908 5.856 43.9948 5.856 43.8908 5.856C43.7948 5.848 43.6988 5.84 43.6028 5.832C43.5068 5.824 43.4388 5.816 43.3988 5.808V9H42.4028V0.684ZM44.4548 1.368C44.2468 1.368 44.0468 1.372 43.8548 1.38C43.6628 1.388 43.5108 1.408 43.3988 1.44V4.92C43.4388 4.936 43.5028 4.948 43.5908 4.956C43.6788 4.956 43.7708 4.96 43.8668 4.968C43.9628 4.968 44.0548 4.968 44.1428 4.968C44.2308 4.968 44.2948 4.968 44.3348 4.968C44.6068 4.968 44.8748 4.944 45.1388 4.896C45.4108 4.84 45.6548 4.744 45.8708 4.608C46.0868 4.472 46.2588 4.28 46.3868 4.032C46.5228 3.784 46.5908 3.468 46.5908 3.084C46.5908 2.756 46.5268 2.484 46.3988 2.268C46.2788 2.044 46.1148 1.868 45.9068 1.74C45.7068 1.604 45.4788 1.508 45.2228 1.452C44.9668 1.396 44.7108 1.368 44.4548 1.368ZM52.9563 8.52C52.7163 8.712 52.4123 8.864 52.0443 8.976C51.6843 9.088 51.3003 9.144 50.8923 9.144C50.4363 9.144 50.0403 9.072 49.7043 8.928C49.3683 8.776 49.0923 8.564 48.8763 8.292C48.6603 8.012 48.5003 7.68 48.3963 7.296C48.2923 6.912 48.2403 6.48 48.2403 6C48.2403 4.976 48.4683 4.196 48.9243 3.66C49.3803 3.124 50.0323 2.856 50.8803 2.856C51.1523 2.856 51.4243 2.888 51.6963 2.952C51.9683 3.008 52.2123 3.12 52.4283 3.288C52.6443 3.456 52.8203 3.696 52.9563 4.008C53.0923 4.312 53.1603 4.716 53.1603 5.22C53.1603 5.484 53.1363 5.776 53.0883 6.096H49.2363C49.2363 6.448 49.2723 6.76 49.3443 7.032C49.4163 7.304 49.5283 7.536 49.6803 7.728C49.8323 7.912 50.0283 8.056 50.2683 8.16C50.5163 8.256 50.8163 8.304 51.1683 8.304C51.4403 8.304 51.7123 8.256 51.9843 8.16C52.2563 8.064 52.4603 7.952 52.5963 7.824L52.9563 8.52ZM50.8923 3.696C50.4203 3.696 50.0403 3.82 49.7523 4.068C49.4723 4.316 49.3043 4.74 49.2483 5.34H52.2243C52.2243 4.732 52.1083 4.308 51.8763 4.068C51.6443 3.82 51.3163 3.696 50.8923 3.696ZM58.1741 3.84H55.6301V9H54.6701V3H58.1741V3.84ZM62.8438 5.448L62.8798 4.704H62.8438L62.3518 5.472L59.6518 9H59.0998V3H60.0598V6.66L60.0238 7.368H60.0718L60.5398 6.624L63.2398 3H63.8038V9H62.8438V5.448ZM69.7426 8.604C69.5026 8.78 69.2186 8.912 68.8906 9C68.5626 9.096 68.2186 9.144 67.8586 9.144C67.3946 9.144 67.0026 9.072 66.6826 8.928C66.3626 8.776 66.0986 8.564 65.8906 8.292C65.6906 8.012 65.5426 7.68 65.4466 7.296C65.3586 6.904 65.3146 6.472 65.3146 6C65.3146 4.984 65.5386 4.208 65.9866 3.672C66.4346 3.128 67.0786 2.856 67.9186 2.856C68.3026 2.856 68.6266 2.888 68.8906 2.952C69.1626 3.008 69.4066 3.092 69.6226 3.204L69.3466 4.032C69.1626 3.928 68.9586 3.848 68.7346 3.792C68.5106 3.728 68.2706 3.696 68.0146 3.696C66.8786 3.696 66.3106 4.464 66.3106 6C66.3106 6.304 66.3386 6.596 66.3946 6.876C66.4586 7.148 66.5586 7.392 66.6946 7.608C66.8386 7.816 67.0226 7.984 67.2466 8.112C67.4786 8.24 67.7626 8.304 68.0986 8.304C68.3866 8.304 68.6426 8.26 68.8666 8.172C69.0986 8.084 69.2866 7.984 69.4306 7.872L69.7426 8.604ZM74.7051 3.84H72.8211V9H71.8611V3.84H69.9771V3H74.7051V3.84ZM75.6584 3H76.3184L76.4984 3.72H76.5464C76.7304 3.44 76.9664 3.228 77.2544 3.084C77.5504 2.932 77.8864 2.856 78.2624 2.856C79.0624 2.856 79.6584 3.092 80.0504 3.564C80.4424 4.036 80.6384 4.808 80.6384 5.88C80.6384 6.384 80.5704 6.84 80.4344 7.248C80.3064 7.648 80.1224 7.988 79.8824 8.268C79.6424 8.548 79.3504 8.764 79.0064 8.916C78.6704 9.068 78.2944 9.144 77.8784 9.144C77.5824 9.144 77.3464 9.124 77.1704 9.084C77.0024 9.052 76.8184 8.992 76.6184 8.904V11.4H75.6584V3ZM78.0824 3.696C77.6744 3.696 77.3504 3.804 77.1104 4.02C76.8784 4.228 76.7144 4.548 76.6184 4.98V7.956C76.7624 8.068 76.9264 8.156 77.1104 8.22C77.2944 8.276 77.5384 8.304 77.8424 8.304C78.3944 8.304 78.8304 8.1 79.1504 7.692C79.4784 7.276 79.6424 6.668 79.6424 5.868C79.6424 5.54 79.6144 5.244 79.5584 4.98C79.5024 4.708 79.4104 4.48 79.2824 4.296C79.1624 4.104 79.0024 3.956 78.8024 3.852C78.6104 3.748 78.3704 3.696 78.0824 3.696ZM82.0546 3.444C82.3586 3.26 82.7106 3.124 83.1106 3.036C83.5186 2.948 83.9426 2.904 84.3826 2.904C84.7986 2.904 85.1306 2.96 85.3786 3.072C85.6346 3.184 85.8266 3.332 85.9546 3.516C86.0906 3.692 86.1786 3.888 86.2186 4.104C86.2666 4.32 86.2906 4.536 86.2906 4.752C86.2906 5.232 86.2786 5.7 86.2546 6.156C86.2306 6.612 86.2186 7.044 86.2186 7.452C86.2186 7.748 86.2306 8.028 86.2546 8.292C86.2786 8.556 86.3226 8.8 86.3866 9.024H85.6786L85.4266 8.184H85.3666C85.2946 8.296 85.2026 8.408 85.0906 8.52C84.9866 8.624 84.8586 8.72 84.7066 8.808C84.5546 8.888 84.3786 8.956 84.1786 9.012C83.9786 9.068 83.7506 9.096 83.4946 9.096C83.2386 9.096 82.9986 9.056 82.7746 8.976C82.5586 8.896 82.3706 8.784 82.2106 8.64C82.0506 8.488 81.9226 8.308 81.8266 8.1C81.7386 7.892 81.6946 7.656 81.6946 7.392C81.6946 7.04 81.7666 6.748 81.9106 6.516C82.0546 6.276 82.2546 6.088 82.5106 5.952C82.7746 5.808 83.0866 5.708 83.4466 5.652C83.8146 5.588 84.2186 5.556 84.6586 5.556C84.7706 5.556 84.8786 5.556 84.9826 5.556C85.0946 5.556 85.2066 5.564 85.3186 5.58C85.3426 5.34 85.3546 5.124 85.3546 4.932C85.3546 4.492 85.2666 4.184 85.0906 4.008C84.9146 3.832 84.5946 3.744 84.1306 3.744C83.9946 3.744 83.8466 3.756 83.6866 3.78C83.5346 3.796 83.3746 3.824 83.2066 3.864C83.0466 3.896 82.8906 3.94 82.7386 3.996C82.5946 4.044 82.4666 4.1 82.3546 4.164L82.0546 3.444ZM83.7586 8.256C83.9826 8.256 84.1826 8.228 84.3586 8.172C84.5346 8.108 84.6866 8.032 84.8146 7.944C84.9426 7.848 85.0466 7.744 85.1266 7.632C85.2146 7.52 85.2786 7.412 85.3186 7.308V6.312C85.2066 6.304 85.0906 6.3 84.9706 6.3C84.8586 6.292 84.7466 6.288 84.6346 6.288C84.3866 6.288 84.1426 6.304 83.9026 6.336C83.6706 6.36 83.4626 6.412 83.2786 6.492C83.1026 6.564 82.9586 6.668 82.8466 6.804C82.7426 6.932 82.6906 7.096 82.6906 7.296C82.6906 7.576 82.7906 7.808 82.9906 7.992C83.1906 8.168 83.4466 8.256 83.7586 8.256ZM93.4917 10.524H92.8437L92.6637 9H88.1037V3H89.0637V8.16H91.6677V3H92.6277V8.16H93.4917V10.524ZM98.4219 5.448L98.4579 4.704H98.4219L97.9299 5.472L95.2299 9H94.6779V3H95.6379V6.66L95.6019 7.368H95.6499L96.1179 6.624L98.8179 3H99.3819V9H98.4219V5.448ZM104.217 6.516L103.293 6.66L101.709 9H100.545L101.985 6.948L102.465 6.504C102.049 6.44 101.693 6.272 101.397 6C101.109 5.728 100.965 5.36 100.965 4.896C100.965 4.536 101.025 4.228 101.145 3.972C101.273 3.716 101.453 3.504 101.685 3.336C101.917 3.168 102.193 3.048 102.513 2.976C102.833 2.896 103.193 2.856 103.593 2.856C103.889 2.856 104.165 2.876 104.421 2.916C104.677 2.956 104.929 3 105.177 3.048V9H104.217V6.516ZM104.217 3.816C104.113 3.776 103.997 3.748 103.869 3.732C103.741 3.708 103.629 3.696 103.533 3.696C103.021 3.696 102.629 3.788 102.357 3.972C102.093 4.156 101.961 4.448 101.961 4.848C101.961 5.208 102.101 5.488 102.381 5.688C102.669 5.88 103.045 5.976 103.509 5.976C103.517 5.976 103.529 5.976 103.545 5.976C103.561 5.976 103.593 5.976 103.641 5.976C103.689 5.976 103.757 5.976 103.845 5.976C103.933 5.968 104.057 5.96 104.217 5.952V3.816Z" fill="#969696"/>
</svg>
